<svg id="home" xmlns="http://www.w3.org/2000/svg" viewBox="0 0 17.8 18"><path id="Path_6378" data-name="Path 6378" d="M8.9,14.8a3.54,3.54,0,0,1-3.5-3.5.6.6,0,0,1,1.2,0,2.2,2.2,0,1,0,4.4,0,.58.58,0,0,1,.6-.6.65.65,0,0,1,.6.6h0a3.25,3.25,0,0,1-3.3,3.5Z" fill="#ccc"/><path id="Path_6379" data-name="Path 6379" d="M15.1,18H2.7A2.69,2.69,0,0,1,0,15.3V5.9C0,4.4,1.1,3.8,2.4,3.1L2.6,3,7.8.3A2.17,2.17,0,0,1,10,.3l5.4,2.9a.76.76,0,0,0,.4.2c.9.5,2,1.2,2,2.5v9.3A2.71,2.71,0,0,1,15.1,18ZM3.2,4.1,3,4.2C1.7,5,1.3,5.3,1.3,5.9v9.3a1.54,1.54,0,0,0,1.5,1.5H15.1a1.54,1.54,0,0,0,1.5-1.5V5.9c0-.6-.5-.9-1.4-1.4a.76.76,0,0,0-.4-.2L9.4,1.4a.91.91,0,0,0-1,0Z" fill="#ccc"/></svg>