<svg id="Layer_1" data-name="Layer 1" xmlns="http://www.w3.org/2000/svg" xmlns:xlink="http://www.w3.org/1999/xlink" viewBox="0 0 30 30"><defs><linearGradient id="linear-gradient" x1="1.47" y1="16.18" x2="24.27" y2="16.18" gradientUnits="userSpaceOnUse"><stop offset="0" stop-color="#5cc1a3"/><stop offset="1" stop-color="#4db8c4"/></linearGradient></defs><path d="M23.16,8.24H1.47V23a1.11,1.11,0,0,0,1.11,1.1H24.27V9.35A1.11,1.11,0,0,0,23.16,8.24ZM17.64,17a2.62,2.62,0,1,1,2.61-2.61A2.61,2.61,0,0,1,17.64,17Z" opacity="0.4" fill="url(#linear-gradient)"/><path d="M17.64,11.75a2.62,2.62,0,1,0,2.61,2.62A2.62,2.62,0,0,0,17.64,11.75Zm0,4.13a1.52,1.52,0,1,1,1.51-1.51A1.52,1.52,0,0,1,17.64,15.88Z" fill="#231f20"/><path d="M27.43,4H2.58A2.21,2.21,0,0,0,.37,6.19V23a2.21,2.21,0,0,0,2.21,2.2H27.43A2.21,2.21,0,0,0,29.64,23V6.19A2.21,2.21,0,0,0,27.43,4Zm1.11,13.44H17.43a3.05,3.05,0,1,1,0-6.1H28.54Zm0-7.2H17.43a4.15,4.15,0,0,0,0,8.29H28.54V23a1.11,1.11,0,0,1-1.11,1.1H2.58A1.11,1.11,0,0,1,1.47,23V6.19A1.11,1.11,0,0,1,2.58,5.08H27.43a1.11,1.11,0,0,1,1.11,1.11Z" fill="#231f20"/></svg>