<svg id="category" xmlns="http://www.w3.org/2000/svg" viewBox="0 0 18 18"><path id="Path_6380" data-name="Path 6380" d="M3.6,8.6H2.8A2.86,2.86,0,0,1,0,5.8H0v-3A2.86,2.86,0,0,1,2.8,0H5.2A2.8,2.8,0,0,1,8,2.8H8v.6a.6.6,0,1,1-1.2,0h0V2.8A1.58,1.58,0,0,0,5.24,1.2H2.8A1.71,1.71,0,0,0,1.3,2.8h0V5.7A1.58,1.58,0,0,0,2.86,7.3H3.7a.67.67,0,0,1,.6.7C4.3,8.4,4,8.6,3.6,8.6Z" fill="#ccc"/><path id="Path_6381" data-name="Path 6381" d="M5.8,18h-3A2.86,2.86,0,0,1,0,15.2H0V12.8A2.8,2.8,0,0,1,2.8,10h.6a.6.6,0,1,1,0,1.2H2.8a1.58,1.58,0,0,0-1.6,1.56V15.2a1.58,1.58,0,0,0,1.56,1.6H5.7a1.58,1.58,0,0,0,1.6-1.56V14.4a.58.58,0,0,1,.56-.6h0a.58.58,0,0,1,.6.56v0h0v.8A2.66,2.66,0,0,1,6,18Z" fill="#ccc"/><path id="Path_6382" data-name="Path 6382" d="M15.1,18H12.7a2.8,2.8,0,0,1-2.8-2.8h0v-.6a.58.58,0,0,1,.56-.6h0a.65.65,0,0,1,.6.6h0v.6a1.58,1.58,0,0,0,1.56,1.6H15.1a1.58,1.58,0,0,0,1.6-1.56V12.3a1.58,1.58,0,0,0-1.56-1.6H14.3a.58.58,0,0,1-.6-.56v0h0a.58.58,0,0,1,.56-.6h.84a2.8,2.8,0,0,1,2.8,2.8h0v2.9A2.8,2.8,0,0,1,15.1,18Z" fill="#ccc"/><path id="Path_6383" data-name="Path 6383" d="M15.1,8.1h-.6a.58.58,0,0,1-.6-.56v0h0a.58.58,0,0,1,.56-.6h.64a1.58,1.58,0,0,0,1.6-1.56V2.8a1.58,1.58,0,0,0-1.56-1.6H12.2a1.58,1.58,0,0,0-1.6,1.56v0h0v.8a.58.58,0,0,1-.56.6h0c-.4.1-.6-.2-.7-.6h0V2.8A2.8,2.8,0,0,1,12.1,0H15a2.8,2.8,0,0,1,2.8,2.8h0V5.2a2.68,2.68,0,0,1-2.45,2.89Z" fill="#ccc"/><path id="Path_6384" data-name="Path 6384" d="M9.2,11.9a.58.58,0,0,1-.6-.56v0h0V7a.58.58,0,0,1,.56-.6h0a.66.66,0,0,1,.7.6v4.3A.67.67,0,0,1,9.2,11.9Z" fill="#ccc"/></svg>