<svg id="Layer_1" data-name="Layer 1" xmlns="http://www.w3.org/2000/svg" viewBox="0 0 33.63 33.63"><path d="M5.69,10.06V29.93a2.39,2.39,0,0,0,2.38,2.39H25.56a2.38,2.38,0,0,0,2.38-2.39V10.06Z" fill="none" stroke="#4a4a4a" stroke-width="1.1"/><path d="M10.46,14.69v13m6.36-13v13m6.36-13v13M11.25,5V3.29a2.11,2.11,0,0,1,2.23-2h6.68a2.11,2.11,0,0,1,2.22,2V5" fill="none" stroke="#4a4a4a" stroke-linecap="round" stroke-width="1.1"/><path d="M4.89,5.29H28.74a2.38,2.38,0,0,1,2.38,2.39h0a2.38,2.38,0,0,1-2.38,2.38H4.89A2.39,2.39,0,0,1,2.51,7.68h0A2.39,2.39,0,0,1,4.89,5.29Z" fill="none" stroke="#4a4a4a" stroke-width="1.1"/></svg>