<svg id="Layer_1" data-name="Layer 1" xmlns="http://www.w3.org/2000/svg" viewBox="0 0 33.63 33.63"><g id="layer1"><g id="text11970"><g id="text12257"><g id="g3549"><g id="text12297"><g id="g4774"><g id="g14823"><g id="g6968"><path id="path8778" d="M11.19.79A1.38,1.38,0,0,0,9.82,2.16v.72l-7,1.87a1.39,1.39,0,0,0-1,1.69L4.19,15.1A2.18,2.18,0,0,0,3,17V30.63a2.24,2.24,0,0,0,2.25,2.22H28.57a2.25,2.25,0,0,0,2.25-2.22V17a2.21,2.21,0,0,0-1.35-2l2.32-8.53a1.4,1.4,0,0,0-1-1.69l-7-1.87V2.16A1.39,1.39,0,0,0,22.44.79Zm0,1H22.44a.37.37,0,0,1,.38.37V3.29a.14.14,0,0,0,0,.09V14.79h-1V4.32a.5.5,0,0,0-.5-.5.52.52,0,0,1-.53-.53.5.5,0,0,0-.5-.5H13.35a.5.5,0,0,0-.5.5.53.53,0,0,1-.53.53.5.5,0,0,0-.5.5V14.79h-1V3.38a.53.53,0,0,0,0-.25v-1A.36.36,0,0,1,11.19,1.79Zm2.44,2H20a1.44,1.44,0,0,0,.82.84V14.79h-8V4.63A1.46,1.46,0,0,0,13.63,3.79Zm2.16,11a1.45,1.45,0,0,0,1.37-1.5.75.75,0,0,1,.69-.82.77.77,0,0,1,.72.82.8.8,0,0,1-.72.84.33.33,0,1,0,0,.66,1.37,1.37,0,0,0,1.28-1.16h.34a.33.33,0,1,0,0-.66H19.1a1.32,1.32,0,0,0-2.63.28v0a.77.77,0,0,1-.68.84.78.78,0,0,1-.72-.81v0a.78.78,0,0,1,.72-.82.34.34,0,0,0,0-.68A1.44,1.44,0,0,0,14.44,13h-.28a.32.32,0,0,0-.34.32.35.35,0,0,0,.34.34h.28A1.42,1.42,0,0,0,15.79,14.79Zm-6-10.88V5L5.44,6.13a.49.49,0,0,0-.38.59v0a.48.48,0,0,1-.35.63A.49.49,0,0,0,4.34,8V8l1.81,6.79H5.29a.5.5,0,0,0-.13,0L2.82,6.16a.36.36,0,0,1,.28-.44Zm14,0,6.72,1.81a.37.37,0,0,1,.28.44l-2.35,8.63h-1L29.29,8a.5.5,0,0,0-.35-.61h0a.48.48,0,0,1-.34-.63.5.5,0,0,0-.35-.61h0L23.82,5Zm-7,.88a1,1,0,1,0,1,1A1,1,0,0,0,16.82,4.79ZM9.82,6V7.16a.94.94,0,0,0-.5,0A1,1,0,0,0,8.6,8.38a1,1,0,0,0,1.22.72v5.69H7.19L5.41,8A1.41,1.41,0,0,0,6,7Zm14,0,3.84,1a1.45,1.45,0,0,0,.56,1l-1.81,6.75H23.82V9.1a1,1,0,0,0,.5-1.94.94.94,0,0,0-.5,0ZM5.29,15.79H28.57A1.22,1.22,0,0,1,29.82,17v3.79H20.29l-1.47,1.46v4.1l1.47,1.44h9.53v2.84a1.23,1.23,0,0,1-1.25,1.22H5.29A1.23,1.23,0,0,1,4,30.63V17A1.22,1.22,0,0,1,5.29,15.79Zm15.4,6h9.13v5H20.69l-.87-.85V22.66Zm1.56,1.15a1.45,1.45,0,0,0-1.43,1.44,1.44,1.44,0,0,0,2.87,0A1.45,1.45,0,0,0,22.25,22.94Zm0,1a.44.44,0,0,1,.44.44.44.44,0,0,1-.87,0A.44.44,0,0,1,22.25,23.94Z" fill="#cbcbca"/></g></g></g></g></g></g></g></g></svg>