<svg id="Layer_1" data-name="Layer 1" xmlns="http://www.w3.org/2000/svg" xmlns:xlink="http://www.w3.org/1999/xlink" viewBox="0 0 549.7 680.79"><defs><linearGradient id="linear-gradient" x1="14.33" y1="340.39" x2="535.36" y2="340.39" gradientUnits="userSpaceOnUse"><stop offset="0" stop-color="#5cc1a3"/><stop offset="1" stop-color="#4db8c4"/></linearGradient></defs><path d="M55.22,461.66V486H67.07a19.77,19.77,0,0,1,19.77,19.77v8.49H55.22v87.57h0A28.26,28.26,0,0,1,27,573.56V514.25h0a12.63,12.63,0,0,1-12.63-12.62V486H27V461.66a35.07,35.07,0,0,1,4.92-18.24,37.11,37.11,0,0,1,13.26-13.2,35.58,35.58,0,0,1,18.42-4.92,37.11,37.11,0,0,1,14.48,3h0a11.19,11.19,0,0,1,3.47,18.32L70.4,457.5a6.88,6.88,0,0,0-3-3,8.46,8.46,0,0,0-3.88-1,8.21,8.21,0,0,0-5.85,2.37A7.65,7.65,0,0,0,55.22,461.66Zm73.47,9.39a14.65,14.65,0,0,1-10.54-4.11,14.63,14.63,0,0,1,0-20.68,14.4,14.4,0,0,1,10.43-4.17,14.17,14.17,0,0,1,10.36,4.17,14.83,14.83,0,0,1,.06,20.68A14.1,14.1,0,0,1,128.69,471.05ZM114.33,486h0a28.26,28.26,0,0,1,28.26,28.26v87.57h0a28.26,28.26,0,0,1-28.26-28.26ZM212,603.9a62.11,62.11,0,0,1-17.43-3.65,50.19,50.19,0,0,1-14.88-8.4l-.13-.1c-6.13-5.08-4.34-15,3-18.11l11-4.72a20,20,0,0,0,4.52,4.92,27.39,27.39,0,0,0,7.47,4.35,25.44,25.44,0,0,0,9.55,1.74,28.73,28.73,0,0,0,8.4-1.22,14.84,14.84,0,0,0,6.48-3.77,9,9,0,0,0,2.49-6.6,8.08,8.08,0,0,0-2.95-6.66,20.18,20.18,0,0,0-7.41-3.59c-3-.81-5.85-1.56-8.63-2.26A83,83,0,0,1,193.07,549a42.63,42.63,0,0,1-15.17-12,28,28,0,0,1-5.73-17.78,32.68,32.68,0,0,1,6.08-19.81,39.9,39.9,0,0,1,15.87-12.85,49.83,49.83,0,0,1,21.14-4.52,56,56,0,0,1,25.31,5.74l.23.11c10.53,5.3,10.62,20.41.47,26.4l-4.82,2.85a19.45,19.45,0,0,0-4.51-5.16,27.41,27.41,0,0,0-7.68-4.36,21.66,21.66,0,0,0-7-1.38,30.7,30.7,0,0,0-9.21.94,14.35,14.35,0,0,0-6.89,3.93,10.41,10.41,0,0,0-2.6,7.42,7.17,7.17,0,0,0,3.47,6.54,28.22,28.22,0,0,0,8.4,3.3q4.92,1.15,9.44,2.55a117.33,117.33,0,0,1,19.17,8.22,44.85,44.85,0,0,1,14.42,11.94A25.79,25.79,0,0,1,258.69,568,30.56,30.56,0,0,1,252,587.63a42.73,42.73,0,0,1-17.32,12.79A48.45,48.45,0,0,1,212,603.9Zm71-44.94V486h0a28.26,28.26,0,0,1,28.26,28.26v37.3A23.82,23.82,0,0,0,314.67,564a25.09,25.09,0,0,0,9,8.92,25,25,0,0,0,24.85,0,25.29,25.29,0,0,0,8.91-8.92,23.82,23.82,0,0,0,3.36-12.45V486h0a28.29,28.29,0,0,1,28.29,28.26l.09,87.57H371.43a10.66,10.66,0,0,1-10.66-10.54h0a44.63,44.63,0,0,1-14.24,9.9,43,43,0,0,1-17.61,3.65,44.27,44.27,0,0,1-23.05-6.2,47.08,47.08,0,0,1-16.62-16.56A44.18,44.18,0,0,1,283.05,559Zm190.69,46.1a58.89,58.89,0,0,1-30.64-8.22A62.2,62.2,0,0,1,421,574.71a61.6,61.6,0,0,1-3.48-54.44,62.17,62.17,0,0,1,32.55-32.54A58.93,58.93,0,0,1,473.74,483a37.59,37.59,0,0,1,19.46,4.92,44.55,44.55,0,0,1,13.9,12.8h0A14.71,14.71,0,0,1,521.81,486h13.55V631.47a28.26,28.26,0,0,1-28.26,28.26h0V587.34a44.55,44.55,0,0,1-13.9,12.8A37.59,37.59,0,0,1,473.74,605.06Zm.35-94.86a30.16,30.16,0,0,0-16.27,4.57A34.9,34.9,0,0,0,446.12,561a33.24,33.24,0,0,0,11.7,12.22,30.46,30.46,0,0,0,16.27,4.51A28.16,28.16,0,0,0,490,573.15a31.75,31.75,0,0,0,10.82-12.28,38.39,38.39,0,0,0,0-33.88A31.83,31.83,0,0,0,490,514.77,28.19,28.19,0,0,0,474.09,510.2ZM123.46,659.56a12.94,12.94,0,0,1-3.84-.74,11,11,0,0,1-3.26-1.83,7,7,0,0,1-2-2.66l3.51-1.51a4.14,4.14,0,0,0,1.31,1.56,7.87,7.87,0,0,0,2.19,1.16,7.3,7.3,0,0,0,2.51.44,7.64,7.64,0,0,0,2.51-.41,4.78,4.78,0,0,0,1.91-1.23,2.83,2.83,0,0,0,.74-2,2.36,2.36,0,0,0-.82-1.91,6,6,0,0,0-2-1.1c-.82-.26-1.65-.52-2.5-.76a27.26,27.26,0,0,1-4.48-1.53,8.32,8.32,0,0,1-3.1-2.26,5.39,5.39,0,0,1-1.13-3.52,6.35,6.35,0,0,1,1.25-3.92,8.26,8.26,0,0,1,3.3-2.55,10.73,10.73,0,0,1,4.38-.9,11.5,11.5,0,0,1,5.38,1.26,8.52,8.52,0,0,1,3.63,3.44l-3.29,1.92a4.2,4.2,0,0,0-1.26-1.55,7,7,0,0,0-2-1.06,7.2,7.2,0,0,0-2.24-.41,7.6,7.6,0,0,0-2.64.36,4.48,4.48,0,0,0-2,1.26,3,3,0,0,0-.75,2.08,2.23,2.23,0,0,0,.8,1.85,5.92,5.92,0,0,0,2.06,1c.86.25,1.79.54,2.79.86a32.44,32.44,0,0,1,4.14,1.63,9.21,9.21,0,0,1,3.1,2.32,5,5,0,0,1,1.16,3.43,6.08,6.08,0,0,1-1.34,3.91,8.46,8.46,0,0,1-3.47,2.54A10.55,10.55,0,0,1,123.46,659.56Zm24,.17a11.32,11.32,0,0,1-6.12-1.73,12.91,12.91,0,0,1-6-11.07,13.15,13.15,0,0,1,3.56-9.1,12.42,12.42,0,0,1,3.89-2.76,11.84,11.84,0,0,1,9.77.11,11.71,11.71,0,0,1,3.94,3.08,13.06,13.06,0,0,1,2.46,4.58,14.6,14.6,0,0,1,.6,5.57H139.7a8.82,8.82,0,0,0,1.36,3.69,8,8,0,0,0,2.74,2.57,7.51,7.51,0,0,0,3.71,1,7.29,7.29,0,0,0,4-1.13,8.53,8.53,0,0,0,2.87-3.11l4.16,1a12.7,12.7,0,0,1-4.4,5.29A11.23,11.23,0,0,1,147.51,659.73Zm-7.94-14.53h15.88a8,8,0,0,0-1.32-3.74,8.58,8.58,0,0,0-2.85-2.71,7.2,7.2,0,0,0-3.77-1,7.36,7.36,0,0,0-3.75,1,8.49,8.49,0,0,0-2.81,2.69A8.88,8.88,0,0,0,139.57,645.2Zm43.53-10.45h4.09V659.1H183.1l-.17-4.12a9.3,9.3,0,0,1-3.15,3.44,8.61,8.61,0,0,1-4.79,1.31,12.56,12.56,0,0,1-5-1,13.24,13.24,0,0,1-4.13-2.8,12.9,12.9,0,0,1-2.78-4.13,12.73,12.73,0,0,1,2.69-14,12.9,12.9,0,0,1,4-2.73,12.29,12.29,0,0,1,4.92-1,9.31,9.31,0,0,1,5,1.35,10.87,10.87,0,0,1,3.51,3.5Zm-8.18,21a7.33,7.33,0,0,0,4.18-1.18,7.75,7.75,0,0,0,2.72-3.2,10.86,10.86,0,0,0,0-9,7.86,7.86,0,0,0-2.74-3.18,7.26,7.26,0,0,0-4.15-1.19,8.24,8.24,0,0,0-4.38,1.2,8.8,8.8,0,0,0-4.28,7.67,8.51,8.51,0,0,0,1.19,4.46,8.94,8.94,0,0,0,3.16,3.19A8.22,8.22,0,0,0,174.92,655.76Zm22.66-27v6h7.14v4.09h-7.14V659.1H193.5V638.84h-3.15v-4.09h3.15v-6a6.43,6.43,0,0,1,.91-3.39,6.93,6.93,0,0,1,2.46-2.44,6.53,6.53,0,0,1,3.39-.91,6.67,6.67,0,0,1,2.66.55,6.55,6.55,0,0,1,2.28,1.61l-2.92,2.9a2.22,2.22,0,0,0-.88-.72,2.7,2.7,0,0,0-1.14-.25,2.57,2.57,0,0,0-1.88.78A2.53,2.53,0,0,0,197.58,628.74Zm21.26,31a11.38,11.38,0,0,1-6.13-1.73,13,13,0,0,1-6.05-11.07,13.18,13.18,0,0,1,1-5,13.32,13.32,0,0,1,2.62-4.09,12.38,12.38,0,0,1,3.88-2.76,11.47,11.47,0,0,1,4.73-1A11.32,11.32,0,0,1,225,635.8a12.68,12.68,0,0,1,4.4,4.65,13.5,13.5,0,0,1,.7,11.44,13.21,13.21,0,0,1-2.62,4.08,12,12,0,0,1-3.87,2.76A11.28,11.28,0,0,1,218.84,659.73Zm0-4.09a7.36,7.36,0,0,0,4.12-1.2,8.65,8.65,0,0,0,2.9-3.19,9,9,0,0,0,1.06-4.32,9.12,9.12,0,0,0-1.08-4.39,8.75,8.75,0,0,0-2.91-3.18,7.59,7.59,0,0,0-8.21,0,8.67,8.67,0,0,0-2.89,3.2,9.44,9.44,0,0,0,0,8.77,8.33,8.33,0,0,0,3,3.14A7.39,7.39,0,0,0,218.84,655.64Zm26.78,4.09a11.35,11.35,0,0,1-6.13-1.73,13,13,0,0,1-6.05-11.07,13.1,13.1,0,0,1,3.57-9.1,12.38,12.38,0,0,1,3.88-2.76,11.47,11.47,0,0,1,4.73-1,11.34,11.34,0,0,1,6.12,1.73,12.68,12.68,0,0,1,4.4,4.65,13.5,13.5,0,0,1,.7,11.44,13.39,13.39,0,0,1-2.62,4.08,12,12,0,0,1-3.87,2.76A11.28,11.28,0,0,1,245.62,659.73Zm0-4.09a7.36,7.36,0,0,0,4.12-1.2,8.65,8.65,0,0,0,2.9-3.19,9.14,9.14,0,0,0,1.06-4.32,9,9,0,0,0-1.09-4.39,8.58,8.58,0,0,0-2.91-3.18,7.58,7.58,0,0,0-8.2,0,8.69,8.69,0,0,0-2.9,3.2,9.11,9.11,0,0,0-1.07,4.36,9,9,0,0,0,1.1,4.41,8.39,8.39,0,0,0,2.94,3.14A7.43,7.43,0,0,0,245.62,655.64Zm35.66-33.06h4.09V659.1h-4.09V655a9.88,9.88,0,0,1-3.34,3.46,9.08,9.08,0,0,1-4.92,1.31,12.32,12.32,0,0,1-5-1,13,13,0,0,1-6.84-6.84,12.28,12.28,0,0,1-1-5,12.41,12.41,0,0,1,1-5,13,13,0,0,1,6.84-6.85,12.32,12.32,0,0,1,5-1,9.08,9.08,0,0,1,4.92,1.31,9.88,9.88,0,0,1,3.34,3.46Zm-8.21,33.18a7.33,7.33,0,0,0,4.18-1.18,7.75,7.75,0,0,0,2.72-3.2,10.76,10.76,0,0,0,0-9,7.86,7.86,0,0,0-2.74-3.18,7.26,7.26,0,0,0-4.15-1.19,8.23,8.23,0,0,0-4.37,1.2,8.86,8.86,0,0,0-3.12,3.2,8.72,8.72,0,0,0-1.17,4.47,8.61,8.61,0,0,0,1.19,4.46,8.94,8.94,0,0,0,3.16,3.19A8.22,8.22,0,0,0,273.07,655.76Zm49.42-33.18h4.09V659.1h-4.09V655a9.88,9.88,0,0,1-3.34,3.46,9.07,9.07,0,0,1-4.91,1.31,12.33,12.33,0,0,1-5-1,12.91,12.91,0,0,1-4.08-2.76,13.25,13.25,0,0,1-2.76-4.08,12.28,12.28,0,0,1-1-5,12.41,12.41,0,0,1,1-5,13.18,13.18,0,0,1,2.76-4.09,12.91,12.91,0,0,1,4.08-2.76,12.33,12.33,0,0,1,5-1,9.07,9.07,0,0,1,4.91,1.31,9.88,9.88,0,0,1,3.34,3.46Zm-8.2,33.18a7.32,7.32,0,0,0,4.17-1.18,7.7,7.7,0,0,0,2.73-3.2,10.86,10.86,0,0,0,0-9,7.94,7.94,0,0,0-2.74-3.18,7.28,7.28,0,0,0-4.15-1.19,8.18,8.18,0,0,0-4.37,1.2,8.89,8.89,0,0,0-3.13,3.2,8.72,8.72,0,0,0-1.17,4.47,8.61,8.61,0,0,0,1.19,4.46,9,9,0,0,0,3.17,3.19A8.19,8.19,0,0,0,314.29,655.76Zm28.63,4a11.35,11.35,0,0,1-6.13-1.73,13,13,0,0,1-6.05-11.07,13.1,13.1,0,0,1,3.57-9.1,12.38,12.38,0,0,1,3.88-2.76,11.87,11.87,0,0,1,9.78.11,11.71,11.71,0,0,1,3.94,3.08,13.22,13.22,0,0,1,2.46,4.58,15,15,0,0,1,.6,5.57H335.1a9,9,0,0,0,1.36,3.69,8.11,8.11,0,0,0,2.74,2.57,7.52,7.52,0,0,0,3.72,1,7.23,7.23,0,0,0,4-1.13,8.47,8.47,0,0,0,2.88-3.11l4.16,1a12.72,12.72,0,0,1-4.41,5.29A11.18,11.18,0,0,1,342.92,659.73ZM335,645.2h15.87a8.11,8.11,0,0,0-1.31-3.74,8.68,8.68,0,0,0-2.85-2.71,7.2,7.2,0,0,0-3.77-1,7.31,7.31,0,0,0-3.75,1,8.43,8.43,0,0,0-2.82,2.69A9,9,0,0,0,335,645.2Zm23.88,13.9V622.58H363V659.1Zm12-28.31a2.25,2.25,0,0,1-1.63-.64,2.25,2.25,0,0,1,0-3.16,2.37,2.37,0,0,1,3.22,0,2.09,2.09,0,0,1,.65,1.58,2.12,2.12,0,0,1-.64,1.58A2.16,2.16,0,0,1,370.88,630.79Zm-2.09,4h4.09V659.1h-4.09Zm22.15,24.35h-5.23l-8.89-24.39h4.36l7.14,19.64,7.13-19.64h4.35Zm22.55.63a11.38,11.38,0,0,1-6.13-1.73,13,13,0,0,1-6.05-11.07,13.18,13.18,0,0,1,.95-5,13.32,13.32,0,0,1,2.62-4.09,12.38,12.38,0,0,1,3.88-2.76,11.87,11.87,0,0,1,9.78.11,11.71,11.71,0,0,1,3.94,3.08,13.06,13.06,0,0,1,2.46,4.58,15,15,0,0,1,.6,5.57H405.67A8.83,8.83,0,0,0,407,652.1a8,8,0,0,0,2.73,2.57,7.55,7.55,0,0,0,3.72,1,7.23,7.23,0,0,0,4-1.13,8.47,8.47,0,0,0,2.88-3.11l4.16,1a12.65,12.65,0,0,1-4.41,5.29A11.18,11.18,0,0,1,413.49,659.73Zm-7.94-14.53h15.87a8.11,8.11,0,0,0-1.31-3.74,8.68,8.68,0,0,0-2.85-2.71,7.2,7.2,0,0,0-3.77-1,7.31,7.31,0,0,0-3.75,1,8.31,8.31,0,0,0-2.81,2.69A8.88,8.88,0,0,0,405.55,645.2Zm24.12,13.9V634.75h4.09v3a9.43,9.43,0,0,1,3.27-2.72,9.28,9.28,0,0,1,4.28-1,9.94,9.94,0,0,1,2.73.37l-1.66,4.09a6.42,6.42,0,0,0-1.95-.32,6.52,6.52,0,0,0-3.34.89,6.73,6.73,0,0,0-2.43,2.4,6.4,6.4,0,0,0-.9,3.36V659.1Zm26.81.63a11.38,11.38,0,0,1-6.13-1.73,12.94,12.94,0,0,1-6-11.07,13.15,13.15,0,0,1,3.56-9.1,12.31,12.31,0,0,1,3.89-2.76,11.84,11.84,0,0,1,9.77.11,11.71,11.71,0,0,1,3.94,3.08,13.06,13.06,0,0,1,2.46,4.58,15,15,0,0,1,.6,5.57H448.66A8.83,8.83,0,0,0,450,652.1a8,8,0,0,0,2.73,2.57,7.55,7.55,0,0,0,3.72,1,7.29,7.29,0,0,0,4-1.13,8.53,8.53,0,0,0,2.87-3.11l4.16,1a12.65,12.65,0,0,1-4.41,5.29A11.18,11.18,0,0,1,456.48,659.73Zm-7.94-14.53h15.87a8,8,0,0,0-1.31-3.74,8.68,8.68,0,0,0-2.85-2.71,7.2,7.2,0,0,0-3.77-1,7.31,7.31,0,0,0-3.75,1,8.4,8.4,0,0,0-2.81,2.69A8.88,8.88,0,0,0,448.54,645.2Zm43.55-22.62h4.09V659.1h-4.09V655a9.94,9.94,0,0,1-3.33,3.46,9.13,9.13,0,0,1-4.92,1.31,12.33,12.33,0,0,1-5-1A12.75,12.75,0,0,1,474.8,656a13.1,13.1,0,0,1-2.77-4.08,12.45,12.45,0,0,1-1-5,12.58,12.58,0,0,1,1-5,13,13,0,0,1,2.77-4.09,12.75,12.75,0,0,1,4.07-2.76,12.33,12.33,0,0,1,5-1,9.13,9.13,0,0,1,4.92,1.31,9.94,9.94,0,0,1,3.33,3.46Zm-8.2,33.18a7.29,7.29,0,0,0,4.17-1.18,7.7,7.7,0,0,0,2.73-3.2,10.86,10.86,0,0,0,0-9,7.86,7.86,0,0,0-2.74-3.18,7.28,7.28,0,0,0-4.15-1.19,8.18,8.18,0,0,0-4.37,1.2,8.89,8.89,0,0,0-3.13,3.2,8.72,8.72,0,0,0-1.17,4.47,8.52,8.52,0,0,0,1.2,4.46,8.87,8.87,0,0,0,3.16,3.19A8.19,8.19,0,0,0,483.89,655.76Zm-141-573.31a6.64,6.64,0,0,0,6.62-6.83,6.71,6.71,0,0,0-6.45-6.41,6.62,6.62,0,1,0-.17,13.24Zm14.37-3.62-1,.79-1,.77-.95.74c-1.25,1-2.46,1.87-3.69,2.68L348.89,85l-1.76,1.21a17.33,17.33,0,0,1-1.85,1.1,10.85,10.85,0,0,1-2,.77,11.62,11.62,0,0,1-2.09.38,12.51,12.51,0,0,1-2.12,0,10.63,10.63,0,0,1-2.08-.41,9.47,9.47,0,0,1-2-.87,11.9,11.9,0,0,1-3.42-3,16,16,0,0,1-1.34-2,22.56,22.56,0,0,1-1.1-2.2l-.54.15a18.46,18.46,0,0,0,.55,2.51,17.28,17.28,0,0,0,.94,2.44,13.23,13.23,0,0,0,3.27,4.33,12.57,12.57,0,0,0,5,2.65,13.59,13.59,0,0,0,2.84.47,16.18,16.18,0,0,0,2.87-.08,23.16,23.16,0,0,0,2.82-.5,20.55,20.55,0,0,0,2.74-.83,14.06,14.06,0,0,0,2.52-1.32,13.33,13.33,0,0,0,2.17-1.79,16.82,16.82,0,0,0,3.18-4.52,13.82,13.82,0,0,0,.95-2.56c.06-.22.12-.45.17-.67s.09-.44.12-.67a9,9,0,0,0,.13-1.38l-.49-.26C358,78.28,357.65,78.56,357.3,78.83Zm-35.81,87.23a6.76,6.76,0,1,0,7.41,7.42A6.8,6.8,0,0,0,321.49,166.06Zm0,0a6.76,6.76,0,1,0,7.41,7.42A6.8,6.8,0,0,0,321.49,166.06ZM97.82,51.89v292.4a30.82,30.82,0,0,0,30.82,30.82H421.05a30.82,30.82,0,0,0,30.83-30.82V51.89a30.83,30.83,0,0,0-30.83-30.83H128.64A30.82,30.82,0,0,0,97.82,51.89ZM226.75,325h-.15l-1.26,0h-1.27l-2.55,0c-.85,0-1.7,0-2.54-.07-1.69-.08-3.38-.2-5.06-.36s-3.37-.35-5-.61c-.41-.06-.83-.12-1.25-.21l-1.25-.22-1.25-.25-.62-.14-.61-.15c-.21-.06-.42-.09-.62-.15l-.62-.17c-.4-.11-.82-.21-1.22-.36l-.61-.18c-.21-.07-.41-.12-.61-.2l-1.05-.38a.18.18,0,0,0-.22.09h0a.19.19,0,0,0,0,.07.17.17,0,0,0,.09.16l1,.54.58.29.59.28c.39.19.79.35,1.19.53l.6.25.61.23c1.62.63,3.28,1.15,5,1.62.83.23,1.68.43,2.53.64s1.69.38,2.54.55,1.71.31,2.56.45,1.72.27,2.57.38c1.73.23,3.44.51,5.17.7.43.06.86.09,1.3.12h0a.4.4,0,0,1,.34.55,32,32,0,0,1-7,10.77l-.15.05-2.38-.35-3.8-.52a56.37,56.37,0,0,1-7.54-1.45,52.75,52.75,0,0,1-7.22-2.52c-1.17-.5-2.31-1.06-3.43-1.67a33.77,33.77,0,0,1-3.26-2,30.74,30.74,0,0,1-5.75-5.06,28.32,28.32,0,0,1-2.35-3.07,32.44,32.44,0,0,1-1.87-3.24.17.17,0,0,0-.22-.08l-.06,0,0,0a.18.18,0,0,0-.11.22,31.14,31.14,0,0,0,1.5,3.53,30.29,30.29,0,0,0,2.07,3.45l.6.81c.18.25.38.49.57.73s.43.53.66.79l.72.81a31.2,31.2,0,0,0,2.95,2.8,39.87,39.87,0,0,0,6.75,4.54c1.2.65,2.42,1.23,3.66,1.77s2.51,1,3.78,1.48,2.56.87,3.86,1.27,2.6.77,3.91,1.1h0a1,1,0,0,1,.59,1.92,50.2,50.2,0,0,1-12.63,5.84,3.87,3.87,0,0,1-2.45,0h0c-1.58-.56-3.15-1.16-4.69-1.82l-1.15-.5c-.18-.08-.38-.17-.56-.27l-.56-.27c-.38-.17-.75-.37-1.12-.56l-.56-.29-.54-.31a33.34,33.34,0,0,1-11-10,35.63,35.63,0,0,1-2.57-4.34l-.55-1.15c-.17-.39-.32-.78-.5-1.17-.07-.19-.17-.39-.24-.59l-.22-.6-.22-.59-.11-.3-.09-.31-.39-1.21a5.34,5.34,0,0,1-.18-.62l-.17-.62-.17-.62c-.06-.21-.09-.42-.15-.63l-.28-1.26c-.33-1.69-.6-3.4-.76-5.12l-.07-.65-.06-.65-.07-1.3,0-.65c0-.22,0-.44,0-.65l0-1.31c0-.43,0-.87,0-1.3l0-1.32c0-.44,0-.87,0-1.31l0-1.14a.18.18,0,0,0-.16-.19h-.14a.17.17,0,0,0-.19.15c-.12.81-.24,1.63-.35,2.45l-.14,1.31c-.05.44-.11.88-.13,1.33l-.09,1.32c0,.23,0,.45,0,.67l0,.66,0,1.34c0,.22,0,.44,0,.66v.67a50.39,50.39,0,0,0,.34,5.35l.19,1.33c0,.22.06.45.1.67l.12.67.13.66q0,.33.12.66l.31,1.33.08.32.09.33.19.65.18.66c.06.21.15.43.22.64.14.43.28.87.43,1.29l.5,1.28a38.67,38.67,0,0,0,2.44,4.91,37.18,37.18,0,0,0,7.06,8.46,48.36,48.36,0,0,0,4.53,3.54,1.81,1.81,0,0,1-.85,3.29,114.6,114.6,0,0,1-19.15.2,5.14,5.14,0,0,1-4-2.34c-19.12-29.57,10.58-81.48,27.93-96.55a.18.18,0,0,1,.29.16c-2.56,15.41-20.2,58.89,36.34,59a.17.17,0,0,1,.16.11C227.43,316.85,227.72,320.67,226.75,325ZM358.62,208c-39.91,36.56-135-18.67-200.35,68.13a139.41,139.41,0,0,1,3.32-31.51,23.22,23.22,0,0,0,3.44,2.31l.65-.5-.76-1.06c-.25-.36-.49-.73-.74-1.08-.47-.73-.94-1.46-1.38-2.21-.15-.23-.28-.47-.41-.7.73-2.81,1.56-5.51,2.48-8.12l.55.49a25.69,25.69,0,0,0,4.66,3.34l.65-.5-.76-1.07c-.25-.35-.49-.72-.73-1.08-.48-.72-1-1.45-1.39-2.2-.54-.91-1-1.84-1.54-2.78a88.45,88.45,0,0,1,4.07-8.72h0a31.28,31.28,0,0,0,4.09,4.35,26.34,26.34,0,0,0,4.68,3.34l.64-.5-.76-1.07-.73-1.08c-.48-.72-1-1.46-1.39-2.2a46.93,46.93,0,0,1-2.41-4.61c-.48-1-.91-2.06-1.3-3.11q2-3.27,4.32-6.27c.66,1,1.36,2,2.1,3a32.57,32.57,0,0,0,4,4.21,25.71,25.71,0,0,0,4.67,3.33l.65-.5-.77-1.07c-.25-.35-.48-.71-.73-1.08-.47-.72-.94-1.45-1.38-2.2a43.88,43.88,0,0,1-2.42-4.6,41.41,41.41,0,0,1-2.21-5.82c1.28-1.47,2.62-2.87,4-4.22.84-.82,1.69-1.63,2.55-2.42.08.17.15.34.22.5l.33.68c.11.23.21.46.33.68l.35.66c.09.15.16.29.24.44a35,35,0,0,0,3,4.5,31.14,31.14,0,0,0,4,4.2,25.22,25.22,0,0,0,4.66,3.34l.65-.5-.75-1.07c-.25-.35-.49-.71-.73-1.07-.49-.72-1-1.46-1.4-2.21a50.29,50.29,0,0,1-2.41-4.6l-.54-1.21c-.5-1.17-1-2.37-1.35-3.58a38.07,38.07,0,0,1-1.27-5.05.78.78,0,0,1,0-.16c.94-.73,1.89-1.44,2.86-2.14q1.75-1.26,3.57-2.44,1.51-1,3.09-2c.22,1,.49,2,.8,3l.24.73c.08.24.18.48.27.72l.27.72,0,.08.26.62c.07.15.13.31.2.46s.07.16.1.23l.33.69c.11.22.21.46.33.67l.35.67a34.88,34.88,0,0,0,3.26,4.94,32.38,32.38,0,0,0,4,4.2,25.24,25.24,0,0,0,4.67,3.33l.65-.5-.76-1.06c-.26-.35-.49-.72-.73-1.08-.48-.72-1-1.45-1.39-2.21a45.86,45.86,0,0,1-2.42-4.6,39.94,39.94,0,0,1-3.16-9.84c-.15-.84-.27-1.69-.35-2.54,0-.43-.07-.86-.11-1.28s0-.82-.05-1.22l.4-.7,1.68-.84c3.17-1.56,6.43-3,9.75-4.32,0,.34,0,.68,0,1l.06.82.08.8a30.94,30.94,0,0,0,1.33,6.16l.08.26.43,1.19.27.72.3.7.36.82.27.56c.2.42.41.84.64,1.25l.05.09a33.17,33.17,0,0,0,7.23,9.14,25.84,25.84,0,0,0,4.68,3.34l.65-.5-.77-1.06c-.24-.36-.48-.73-.73-1.09-.48-.72-1-1.45-1.39-2.2a46.93,46.93,0,0,1-2.41-4.61,40,40,0,0,1-3.16-9.83c-.16-.85-.26-1.7-.35-2.55-.05-.42-.08-.86-.11-1.28s0-.85,0-1.29a26.33,26.33,0,0,1,.38-5.09c0-.09,0-.19.05-.29,4.65-1.58,9.42-3,14.24-4.24v.06c-.06.56-.13,1.12-.15,1.68,0,.28,0,.56,0,.83v.83c0,.55,0,1.1,0,1.64a7.36,7.36,0,0,0,.06.82l.07.8a31.2,31.2,0,0,0,1.34,6.17l.21.66.29.79.27.71.3.71c.1.23.2.46.31.69l.32.68c.11.23.21.46.33.68l.35.66a34,34,0,0,0,3.26,4.94,31.14,31.14,0,0,0,4,4.2,26,26,0,0,0,4.66,3.34l.65-.5-.75-1.07c-.25-.35-.49-.71-.73-1.08-.49-.72-.95-1.45-1.4-2.2a50.29,50.29,0,0,1-2.41-4.6,39.5,39.5,0,0,1-3.15-9.84c-.16-.85-.27-1.7-.36-2.55-.05-.43-.07-.85-.11-1.28s0-.85,0-1.28a27.19,27.19,0,0,1,.38-5.1c0-.21.08-.41.12-.62l.14-.62.15-.61c.05-.21.11-.42.17-.62h0a1.76,1.76,0,0,1,1.32-1.21q5.56-1.23,11.21-2.28a2.19,2.19,0,0,1,2.53,2.67c-.2.88-.36,1.76-.48,2.63a34.3,34.3,0,0,0,.68,13.28c.13.53.27,1.06.42,1.57s.32,1,.49,1.55l.56,1.5c.21.5.41,1,.63,1.47a35.31,35.31,0,0,0,3.12,5.5,32.39,32.39,0,0,0,4,4.71,25,25,0,0,0,4.84,3.73l.65-.5-.81-1.13-.76-1.17c-.26-.38-.5-.78-.74-1.17l-.71-1.2a42.35,42.35,0,0,1-2.38-5A39.94,39.94,0,0,1,273.68,184c0-.45-.1-.91-.13-1.37l-.05-.69c0-.22,0-.45,0-.69,0-.91-.05-1.82,0-2.74a32,32,0,0,1,.63-5.45,28.11,28.11,0,0,1,1.57-5.23.05.05,0,0,0,0,0,7.4,7.4,0,0,1,5.73-4.44c41.67-6.45,81.3-9.3,95.64-30.22-2.46,24.57-9.69,70.09-67.56,68.38C336.24,207.54,346.45,195.09,358.62,208Zm22.29-92.68h0c-23,29-78,2.14-79.55-31.91-.5,37.13,27.53,52.1,46.09,55.11A158.29,158.29,0,0,1,328.1,144c-6.77,1.52-13.86,2.79-21.13,4-7.59,1.23-15.39,2.35-23.27,3.58-2.18.33-4.37.68-6.55,1-4.8.78-9.61,1.61-14.41,2.54-4.57.88-9.13,1.84-13.65,2.93-1.42.34-2.83.69-4.24,1.06q-5,1.29-10,2.84h0q-3.33,1-6.6,2.21c-1.37.48-2.73,1-4.07,1.51-1.14.44-2.28.91-3.41,1.37-2.39,1-4.75,2.05-7.08,3.18l-.05,0c-2.36,1.14-4.66,2.34-6.94,3.63-1.44.8-2.85,1.63-4.26,2.5l-1.39.88c-2.4,1.53-4.74,3.15-7,4.88l-.57.44c-1.17.89-2.33,1.8-3.46,2.74-1.54,1.28-3,2.6-4.52,4-.54.5-1.08,1-1.61,1.53q-1.71,1.65-3.35,3.42c-.19.19-.38.39-.56.59-1.85,2-3.64,4.09-5.37,6.29l-.7.89q-1.53,2-3,4-2.55,3.65-4.91,7.62h0c-1.16,2-2.29,4-3.37,6.11s-2.28,4.56-3.34,7c-.35.78-.69,1.56-1,2.35,0,0-.06-1.45,0-4.1.06-3.05.28-7.7.92-13.54.44-4,1.1-8.67,2.06-13.74.44-2.33.94-4.76,1.51-7.27,12.43-54.26,58.71-146.67,229.72-148.59C397.1,77.16,392.15,100,380.91,115.27Zm-58,64.24a6.76,6.76,0,1,0-7.41-7.41A6.77,6.77,0,0,0,322.87,179.51Z" fill="url(#linear-gradient)"/></svg>