<svg id="Layer_1" data-name="Layer 1" xmlns="http://www.w3.org/2000/svg" xmlns:xlink="http://www.w3.org/1999/xlink" viewBox="0 0 105.59 70.07"><defs><linearGradient id="linear-gradient" x1="0.99" y1="35.04" x2="104.6" y2="35.04" gradientUnits="userSpaceOnUse"><stop offset="0" stop-color="#83ca9e"/><stop offset="1" stop-color="#4db8c4"/></linearGradient></defs><path d="M99.22,25H97.7c-.16,1-.31,2-.47,3-.08.4-.44.61-.72.4a.59.59,0,0,1-.13-.53c.14-.95.29-1.9.45-2.89-.35,0-.63,0-.9,0-.52-.07-.72.12-.77.61-.09.78-.25,1.55-.37,2.32-.05.28-.14.53-.53.55s-.47-.18-.41-.53c.17-1,.32-1.94.47-2.93H92.75l-.1.64c-.12.75-.24,1.5-.35,2.26-.09.6-.51.54-1,.56s-.57-.13-.47-.54a8.46,8.46,0,0,0,.19-1.47c0-1.23-.78-1.91-2.11-1.86a2.58,2.58,0,0,0-2.39,2.09,9.33,9.33,0,0,0-.19,1.24c0,.44-.23.54-.67.54q-16.26,0-32.53,0c-.49,0-.59-.17-.52-.6.17-1,.32-2,.48-3l.29-1.8h-1.5c-.29,1.81-.61,3.57-.83,5.33-.07.61.56,1.1,1.25,1.15a6.54,6.54,0,0,0,.77,0q15.95,0,31.88,0a12.87,12.87,0,0,1,3.12.35,4.47,4.47,0,0,0,1.57-.09c.39-.05.78-.21,1.16-.24a12.71,12.71,0,0,1,1.38,0c.36,0,.72,0,1.08,0,.55,0,1.12,0,1.66-.05.2,0,.4,0,.59,0a12.79,12.79,0,0,0,1.52.09,1.72,1.72,0,0,0,1.58-1.12C98.91,27.27,99,26.13,99.22,25Zm-9.83,2.61-.07.4c-.15.89-.52,1.07-1.28.63a.39.39,0,0,1-.15-.31,9,9,0,0,1,.3-1.8,1.37,1.37,0,0,1,.74-.77c.47-.13.56.34.58.67a9.52,9.52,0,0,1-.09,1.18Zm-40.28-3.8c-.21,1.33-.44,2.67-.63,4-.06.46-.25.64-.75.63-.83,0-1.67,0-2.51,0-.5,0-.64-.16-.55-.62s.2-1.22.3-1.81H43.4c-.11.65-.21,1.27-.3,1.88a1.35,1.35,0,0,0,1.48,1.67c1.11,0,2.23,0,3.34,0A2,2,0,0,0,50,27.78c.23-1.39.45-2.78.67-4.17,0-.18,0-.36.06-.56h-1.5C49.21,23.31,49.15,23.55,49.11,23.79Zm50.62,5.67h1.48l1-6.41h-1.48ZM47.59,25.62c-.45.07-.76-.05-.72-.51s.39-.52.8-.56c.15,0,.32-.27.48-.41-.75-.15-1.43-.22-1.9.39A2.77,2.77,0,0,0,46,25.59h.11l-.39.83,2.19-.16.1-.63C47.82,25.62,47.7,25.61,47.59,25.62ZM36.2,28.87A1,1,0,0,0,37.28,28a.73.73,0,0,0-.75-.95h0a1.14,1.14,0,0,0-1.13.92.71.71,0,0,0,.16.62.86.86,0,0,0,.65.28Zm3.92,0A1.05,1.05,0,0,0,41.2,28a.72.72,0,0,0-.16-.65.81.81,0,0,0-.64-.26,1.12,1.12,0,0,0-1.12.89.8.8,0,0,0,.15.66.91.91,0,0,0,.68.27ZM82.21,14.39a4.72,4.72,0,0,0-5-3.47,11,11,0,0,0-2.71.38,2.13,2.13,0,0,0,.08.27c.12.43.26.88.35,1.33s.22.45.46.45l.3,0a5.42,5.42,0,0,1,.94-.08,2.28,2.28,0,0,1,2.44,2,17,17,0,0,1,.37,2.46c0,.32.07.65.11,1a.7.7,0,0,1-.07.36.65.65,0,0,0,0,.11l-.07.24H70.74l0-.27c.06-.39.12-.77.19-1.16.14-.87.28-1.68.38-2.52a3.74,3.74,0,0,0-1.51-3.8,4.26,4.26,0,0,0-2.51-.78,6,6,0,0,0-2.33.51,5.18,5.18,0,0,0-3.18,3.86c-.15.66-.25,1.34-.35,2-.08.46-.15.95-.24,1.42,0,.22-.32.74-.67.77s-.57,0-1,0H58.34l.15-1a10.63,10.63,0,0,0,0-3.95c-.5-2.32-2.41-3.64-5.22-3.64h-.1a1.19,1.19,0,0,0-.24,0c-.37.59-.72,1.2-1.09,1.83-.05.1-.11.19-.16.28l.37,0,1.09.14c1.38.16,2.17.86,2.26,2a18.12,18.12,0,0,1,0,2.33c0,.34,0,.68,0,1a.85.85,0,0,1-.26.65,1.09,1.09,0,0,1-.74.24h-3l-1.56,0h0a.43.43,0,0,0-.24,0s0,0-.07.26a11.63,11.63,0,0,1-.27,1.62c-.06.23,0,.3,0,.32s.1.07.38.07h0l7,0H61.5a3.43,3.43,0,0,1,.89.08c.41.09.81.21,1.2.31.58.16,1.18.32,1.78.45a5.62,5.62,0,0,0,1.19.13,4.46,4.46,0,0,0,2.27-.6,2.8,2.8,0,0,1,1.32-.37h10.5a4.07,4.07,0,0,0,1.06-.12,1.2,1.2,0,0,0,1-1.07A18.27,18.27,0,0,0,82.21,14.39Zm-14.33,3.3-.28,1.79a.91.91,0,0,1-.87.85,1.72,1.72,0,0,1-.37,0,15.37,15.37,0,0,1-1.57-.42.69.69,0,0,1-.46-.65c.22-1.41.44-2.86.74-4.28a2.27,2.27,0,0,1,1.83-1.79h0a1.53,1.53,0,0,1,1.29,1.63c0,.61-.08,1.25-.15,1.86,0,.27,0,.52-.09.8l0,.26ZM43.44,24.14a5.93,5.93,0,0,0,2.79-2.83A3.7,3.7,0,0,0,45,16.61a16.17,16.17,0,0,0-1.75-1c-.29-.16-.59-.32-.89-.5L42,14.88l.37-.26.29-.2a6.78,6.78,0,0,1,.74-.49,3.94,3.94,0,0,1,1.88-.47,4.94,4.94,0,0,1,1,.1h.12a.88.88,0,0,0,.22,0c.39-.55.75-1.1,1.13-1.69l.21-.34a7.48,7.48,0,0,0-2.27-.32,9.85,9.85,0,0,0-2.26.26c-2.09.5-4.51,2.18-4.85,4.69v.11a1.72,1.72,0,0,0,0,.55,1.91,1.91,0,0,0,.6.16,7.27,7.27,0,0,1,3.43,1.34,2.15,2.15,0,0,1,.79,2.31,3.21,3.21,0,0,1-2.06,1.95,5.38,5.38,0,0,1-1.88.38,3.29,3.29,0,0,1-2.14-.74c-1-.81-1.29-2-.86-3.62.07-.24.15-.48.24-.74l0-.1-.51,0-2.46-.18a.64.64,0,0,0-.13.1c-.91,2.46-.65,4.38.81,5.89a6.65,6.65,0,0,0,4.8,1.7A9,9,0,0,0,43.44,24.14Zm50-2.53A3.93,3.93,0,0,0,97,18.67c.42-2.39.8-4.82,1.17-7.17.19-1.24.39-2.48.59-3.72,0-.12,0-.15,0-.15a.32.32,0,0,0-.15,0h-1.4c-.45,0-.85,0-1.21,0h-.09c-.16,0-.21,0-.22,0s-.07.06-.1.28c-.3,1.93-.61,3.88-.92,5.78l-.33,2.06c0,.25-.08.49-.11.73-.09.62-.19,1.26-.33,1.88-.07.32-.45.93-.86,1a6.46,6.46,0,0,1-.94.06H90.63s.45-2.86.59-3.7c.4-2.53.81-5.14,1.23-7.7,0-.25,0-.32,0-.35a.42.42,0,0,0-.24,0h-.1l-.71,0H89.88a3.26,3.26,0,0,0-.49,0,2.88,2.88,0,0,0-.09.45L87.49,19.42H85.76a.39.39,0,0,0,0,.15c0,.24-.08.48-.12.72-.06.4-.13.82-.17,1.22a.36.36,0,0,0,.11.16H89C90.18,21.68,91.8,21.67,93.44,21.61Zm8.91-.06s.06-.08.1-.3c.24-1.64.51-3.3.77-4.91.09-.58.19-1.16.28-1.75l0-.27c.08-.49.15-1,.23-1.46.26-1.63.53-3.32.81-5,0-.2,0-.25,0-.25a.31.31,0,0,0-.17,0h-1.69a3,3,0,0,0-1.16.1c-.13.1-.19.51-.28,1.07l-.43,2.72c-.51,3.18-1,6.46-1.56,9.68,0,.25,0,.33,0,.36a.42.42,0,0,0,.25.05h.08l1.17,0c.41,0,.83,0,1.24,0h.07C102.29,21.59,102.34,21.56,102.35,21.55Zm-12-17.76a1.13,1.13,0,0,0-.26,1.62,1.19,1.19,0,0,1-.2.1c-.35,0-.66,0-.68.54s.22.54.64.5c.88-.08,1.77-.15,2.65-.21.31,0,.45-.17.44-.44s0-.39,0-.61c-.33,0-.69.16-.87,0a4.53,4.53,0,0,1-.85-.79A2.37,2.37,0,0,1,92,4.3c.72.08.81-.36.94-.85A2.77,2.77,0,0,0,90.37,3.79Zm-77.86,23a1.23,1.23,0,0,1,.79-.28,1,1,0,0,1,.55.18.81.81,0,0,1,.33.52L18,24a2.25,2.25,0,0,0-.48-3.79l0,0a7.88,7.88,0,0,0-3.17-.67,8.94,8.94,0,0,0-4.29,1.09A10.69,10.69,0,0,0,6.65,23.5a8.63,8.63,0,0,0-1.71,4l-.66,4.25a2.58,2.58,0,0,0-2.56,2.18L1,38.77H3.23l-1.64,11A4.7,4.7,0,0,0,6.3,55.12H7.93l2.46-16.35h1.75a5.08,5.08,0,0,0,5.05-4.27l.41-2.74H11.44l.66-4.25A1,1,0,0,1,12.51,26.81Zm9.81,5H20.47l-2.8,18.49A4.28,4.28,0,0,0,22,55.12h2.15l2.74-18.23A4.5,4.5,0,0,0,22.32,31.76Zm5.57-8.42a3,3,0,0,0-2.39-1,4.14,4.14,0,0,0-2.73,1,4,4,0,0,0-1.42,2.49,2.88,2.88,0,0,0,.67,2.5,3.11,3.11,0,0,0,2.45,1,4.16,4.16,0,0,0,4.08-3.5A2.94,2.94,0,0,0,27.89,23.34ZM45.74,44.56A7.61,7.61,0,0,0,43.2,42a16.57,16.57,0,0,0-3.6-1.71A10.08,10.08,0,0,0,38.28,40a5,5,0,0,1-1.44-.43.86.86,0,0,1-.52-1,1.84,1.84,0,0,1,.56-1.12A2.37,2.37,0,0,1,38,37a5.49,5.49,0,0,1,1.48-.06,3.14,3.14,0,0,1,1.11.34,4,4,0,0,1,.86.63,4.77,4.77,0,0,1,.6.72l2.69-1.45a2.84,2.84,0,0,0,.06-5l0,0a10.77,10.77,0,0,0-5-1.12,11.38,11.38,0,0,0-4.55.94,10.25,10.25,0,0,0-3.71,2.7,8.08,8.08,0,0,0-1.89,4.16,5.39,5.39,0,0,0,.67,3.74,7.56,7.56,0,0,0,2.8,2.6A11.63,11.63,0,0,0,37,46.43a12.56,12.56,0,0,1,1.25.25,3,3,0,0,1,1.11.48,1,1,0,0,1,.35,1,1.36,1.36,0,0,1-.52.91,2.5,2.5,0,0,1-1,.45,5.41,5.41,0,0,1-1.21.14,3.53,3.53,0,0,1-1.55-.31,3.67,3.67,0,0,1-1-.69L33.79,48l-4,1.57a2.11,2.11,0,0,0-.74,3.5l0,0a8.77,8.77,0,0,0,2.74,1.66,12.6,12.6,0,0,0,3.35.77,11.17,11.17,0,0,0,9-3.36,7.46,7.46,0,0,0,2-4.11A5,5,0,0,0,45.74,44.56Zm22.34-12.8h-2l-2,12.92a4.14,4.14,0,0,1-.82,2A5.07,5.07,0,0,1,61.76,48a4.71,4.71,0,0,1-2.14.6,3.61,3.61,0,0,1-2-.53,3.21,3.21,0,0,1-1.26-1.42,3.6,3.6,0,0,1-.26-2l1.25-8.2a4.14,4.14,0,0,0-4.15-4.72h-2.3L48.62,46.64a7.91,7.91,0,0,0,.56,4.57A7.54,7.54,0,0,0,52,54.5a8.22,8.22,0,0,0,4.48,1.22,9.88,9.88,0,0,0,3.31-.56,10.69,10.69,0,0,0,3-1.56,1.36,1.36,0,0,0,1.36,1.52h5.59l2.75-18.37A4.39,4.39,0,0,0,68.08,31.76Zm27.91,0a2.67,2.67,0,0,0-1.72.63A2.52,2.52,0,0,0,93.4,34a7.4,7.4,0,0,0-2.29-2,6.55,6.55,0,0,0-3.3-.78,13.4,13.4,0,0,0-5,.95,15.28,15.28,0,0,0-4.4,2.65,16,16,0,0,0-3.3,3.91,12.8,12.8,0,0,0-1.69,4.77,11,11,0,0,0,.75,6.22A10.36,10.36,0,0,0,78,54.12a11,11,0,0,0,6,1.65A8,8,0,0,0,87.63,55a12.13,12.13,0,0,0,2.9-2L88.43,66.8h1.74a6.23,6.23,0,0,0,6.2-5.25l4.51-29.79ZM91.34,43.44a6.42,6.42,0,0,1-1.12,2.8,7,7,0,0,1-2.22,2,5.64,5.64,0,0,1-2.81.75,4.39,4.39,0,0,1-2.56-.75,4.24,4.24,0,0,1-1.6-2,5.3,5.3,0,0,1-.28-2.8,6.49,6.49,0,0,1,1.12-2.78,7,7,0,0,1,2.21-2,5.56,5.56,0,0,1,2.8-.76,4.45,4.45,0,0,1,2.57.76,4.5,4.5,0,0,1,1.6,2A5.07,5.07,0,0,1,91.34,43.44Z" fill="url(#linear-gradient)"/></svg>