<svg id="Layer_1" data-name="Layer 1" xmlns="http://www.w3.org/2000/svg" xmlns:xlink="http://www.w3.org/1999/xlink" viewBox="0 0 145 145"><defs><linearGradient id="linear-gradient" x1="95.47" y1="29.59" x2="100.77" y2="24.56" gradientUnits="userSpaceOnUse"><stop offset="0" stop-color="#4db8c4"/><stop offset="0.18" stop-color="#56bab1"/><stop offset="0.55" stop-color="#6ebf80"/><stop offset="0.97" stop-color="#8dc63f"/></linearGradient><linearGradient id="linear-gradient-2" x1="93.94" y1="33.58" x2="104.45" y2="23.6" xlink:href="#linear-gradient"/><linearGradient id="linear-gradient-3" x1="1.66" y1="139.77" x2="192.88" y2="-41.83" xlink:href="#linear-gradient"/></defs><path d="M95,27.73a2.43,2.43,0,1,1,2.42,2.42A2.43,2.43,0,0,1,95,27.73Z" fill="url(#linear-gradient)"/><path d="M103.09,28.53l.18.1a4,4,0,0,1,0,.5,2.21,2.21,0,0,1,0,.25l-.06.24a4.63,4.63,0,0,1-.35.94,5.93,5.93,0,0,1-1.16,1.65,4.61,4.61,0,0,1-.8.66,5.36,5.36,0,0,1-.92.48,6.94,6.94,0,0,1-1,.31,8.87,8.87,0,0,1-1,.18,6.14,6.14,0,0,1-1,0,5.25,5.25,0,0,1-1-.17,4.36,4.36,0,0,1-1-.39,4.91,4.91,0,0,1-.85-.58,4.85,4.85,0,0,1-1.2-1.59,6.28,6.28,0,0,1-.54-1.81l.2-.06a7.61,7.61,0,0,0,.4.81,5.35,5.35,0,0,0,.49.72,4.33,4.33,0,0,0,1.25,1.1,3.34,3.34,0,0,0,.73.31,4,4,0,0,0,1.54.15,4,4,0,0,0,.76-.13,3.83,3.83,0,0,0,.73-.29,5.77,5.77,0,0,0,.68-.4l.65-.44.66-.45c.45-.3.89-.63,1.35-1l.35-.27.35-.28.37-.29Z" fill="url(#linear-gradient-2)"/><path d="M89.58,60.78a2.47,2.47,0,1,0,2.72,2.71A2.47,2.47,0,0,0,89.58,60.78Zm0,0a2.47,2.47,0,1,0,2.72,2.71A2.47,2.47,0,0,0,89.58,60.78ZM118.4,4H26.6A22.61,22.61,0,0,0,4,26.6v91.81A22.6,22.6,0,0,0,26.6,141h91.8A22.6,22.6,0,0,0,141,118.41V26.6A22.61,22.61,0,0,0,118.4,4ZM54.89,119H53c-.31,0-.62,0-.93,0-.62,0-1.24-.08-1.86-.14s-1.23-.13-1.84-.22l-.46-.07-.46-.09-.45-.09-.23,0-.23-.06-.22,0-.23-.06-.45-.13-.22-.07-.22-.07-.39-.14a.06.06,0,0,0-.08,0,0,0,0,0,0,0,0,.07.07,0,0,0,0,.06l.36.2.21.1.22.1c.14.08.29.13.43.2l.22.09.22.09c.6.23,1.21.42,1.82.59l.92.23.94.2.93.17,1,.14,1.89.26.47,0a.15.15,0,0,1,.14.15.11.11,0,0,1,0,0,11.75,11.75,0,0,1-2.56,3.94.07.07,0,0,1-.06,0l-.87-.12-1.4-.19a21.55,21.55,0,0,1-2.75-.54,18.87,18.87,0,0,1-2.65-.92c-.43-.18-.85-.39-1.26-.61a13.06,13.06,0,0,1-1.19-.73,10.57,10.57,0,0,1-3-3,12.47,12.47,0,0,1-.68-1.18s0,0-.08,0h0a.07.07,0,0,0,0,.08,12.19,12.19,0,0,0,.55,1.29,10.93,10.93,0,0,0,.76,1.27l.22.3c.07.1.15.19.23.29a3.22,3.22,0,0,0,.24.28c.08.09.16.19.25.28a11.49,11.49,0,0,0,1.07,1,14.68,14.68,0,0,0,2.47,1.67c.44.23.89.45,1.35.65s.92.37,1.38.54.94.32,1.41.46,1,.28,1.44.4h0a.42.42,0,0,1,.13.76,18.66,18.66,0,0,1-4.55,2.09,1.42,1.42,0,0,1-.89,0h0c-.58-.21-1.15-.43-1.71-.67l-.42-.18-.21-.1-.21-.1c-.14-.06-.27-.14-.41-.21l-.2-.1-.2-.12a12.93,12.93,0,0,1-1.52-1,12.43,12.43,0,0,1-2.51-2.66,12.76,12.76,0,0,1-.94-1.59l-.2-.42c-.07-.14-.12-.29-.19-.43s-.06-.14-.08-.22l-.08-.22-.09-.21,0-.11,0-.12-.14-.44a2,2,0,0,1-.07-.23l-.06-.23-.06-.22-.06-.23-.1-.46c-.12-.62-.22-1.25-.28-1.88l0-.24,0-.23,0-.48,0-.24a1.93,1.93,0,0,0,0-.24v-1.43c0-.16,0-.32,0-.48l0-.43a.06.06,0,0,0-.06-.06h0a.07.07,0,0,0-.07.06c0,.3-.09.6-.13.9l0,.48c0,.16,0,.32,0,.48l0,.49c0,.08,0,.16,0,.24v.73a1,1,0,0,0,0,.25v.24a18.41,18.41,0,0,0,.12,2l.07.49a2,2,0,0,0,0,.24l0,.25.05.24a2,2,0,0,0,0,.24l.12.49,0,.12,0,.12.14.48c0,.08,0,.15.07.23s.11.32.16.48l.19.46a12.9,12.9,0,0,0,3.47,4.9,19,19,0,0,0,1.66,1.3.66.66,0,0,1-.31,1.2,41.37,41.37,0,0,1-7,.07,1.87,1.87,0,0,1-1.45-.85c-7-10.83,3.87-29.84,10.23-35.36a.06.06,0,0,1,.1.06C40.45,99.1,34,115,54.7,115.05a.07.07,0,0,1,.06,0A6.73,6.73,0,0,1,54.89,119Zm48.29-42.85c-14.61,13.39-49.44-6.84-73.37,24.95A51.11,51.11,0,0,1,31,89.53a9.26,9.26,0,0,0,1.26.85l.24-.19-.28-.39L32,89.41c-.17-.27-.35-.54-.51-.81l-.15-.26c.27-1,.58-2,.91-3l.2.18a9.84,9.84,0,0,0,1.71,1.22l.24-.18-.28-.39-.27-.4c-.17-.26-.35-.53-.51-.81s-.38-.67-.56-1a33.57,33.57,0,0,1,1.49-3.2l0,.06a12.49,12.49,0,0,0,1.46,1.54,9.84,9.84,0,0,0,1.71,1.22l.24-.19L37.41,83l-.27-.39c-.17-.27-.35-.53-.51-.81a18.06,18.06,0,0,1-.88-1.69c-.18-.37-.34-.75-.48-1.13.5-.8,1-1.57,1.59-2.3a10.22,10.22,0,0,0,.77,1.09,11.82,11.82,0,0,0,1.46,1.54,9.47,9.47,0,0,0,1.71,1.22l.23-.18L40.76,80l-.27-.4c-.18-.27-.35-.53-.51-.81a18,18,0,0,1-.89-1.68,15.34,15.34,0,0,1-.8-2.14c.47-.53,1-1,1.46-1.54.3-.3.62-.6.93-.88a1.42,1.42,0,0,1,.08.18l.12.25.12.25.13.24.09.16a13.22,13.22,0,0,0,1.11,1.65,11.82,11.82,0,0,0,1.46,1.54A9.47,9.47,0,0,0,45.5,78l.23-.18-.27-.39-.27-.4c-.18-.27-.35-.53-.51-.81a18,18,0,0,1-.89-1.68l-.19-.45c-.19-.43-.35-.86-.5-1.31A14.29,14.29,0,0,1,42.64,71s0,0,0-.06c.34-.26.69-.53,1-.78s.86-.61,1.31-.9.74-.48,1.13-.71c.08.37.18.74.29,1.09l.09.27a2.77,2.77,0,0,0,.1.26l.1.26v0l.1.23a1.22,1.22,0,0,0,.07.17.36.36,0,0,0,0,.09l.12.25c0,.08.07.16.12.24l.13.25a12.47,12.47,0,0,0,1.19,1.8A11.22,11.22,0,0,0,49.94,75a9.39,9.39,0,0,0,1.71,1.23l.24-.19-.28-.39-.27-.39c-.17-.27-.35-.54-.51-.81A18.06,18.06,0,0,1,50,72.74a14.42,14.42,0,0,1-1.16-3.6c0-.31-.1-.62-.13-.93,0-.16,0-.31,0-.47s0-.3,0-.45l.15-.25.62-.31c1.16-.57,2.35-1.1,3.57-1.58,0,.12,0,.25,0,.37s0,.2,0,.3l0,.29a11.78,11.78,0,0,0,.49,2.26l.09.27a2,2,0,0,0,.1.26l.1.27.1.25.12.26.12.25c0,.08.07.16.12.25l.13.24a11.54,11.54,0,0,0,1.19,1.81A11.82,11.82,0,0,0,57,73.77,9.84,9.84,0,0,0,58.73,75l.24-.18-.28-.39-.27-.4c-.17-.27-.35-.53-.51-.81A17.89,17.89,0,0,1,57,71.53a14.62,14.62,0,0,1-1.16-3.61c-.06-.31-.1-.62-.13-.93,0-.16,0-.31,0-.47s0-.31,0-.47a9.59,9.59,0,0,1,.14-1.86s0-.08,0-.11c1.7-.58,3.45-1.09,5.22-1.55v0c0,.2-.05.41-.06.61s0,.21,0,.31v.3c0,.2,0,.4,0,.6s0,.2,0,.3l0,.29a11.07,11.07,0,0,0,.49,2.26l.09.27.09.26.1.27.11.25.11.26.12.25.12.25.13.24a12.35,12.35,0,0,0,1.2,1.81,11.82,11.82,0,0,0,1.46,1.54,9.47,9.47,0,0,0,1.71,1.22l.23-.18-.27-.39c-.1-.13-.18-.27-.27-.4s-.35-.53-.51-.81a18,18,0,0,1-.89-1.68,14.89,14.89,0,0,1-1.15-3.61c-.06-.31-.1-.62-.13-.93,0-.16,0-.31,0-.47s0-.31,0-.47A9.65,9.65,0,0,1,63.87,63c0-.08,0-.16,0-.23l.05-.23.06-.23.06-.22a.66.66,0,0,1,.48-.45c1.36-.3,2.74-.58,4.11-.83a.81.81,0,0,1,.93,1,8.1,8.1,0,0,0-.18,1,12.74,12.74,0,0,0,.25,4.86l.15.58.18.56.21.55c.08.19.15.37.23.54a12.73,12.73,0,0,0,1.14,2,11.68,11.68,0,0,0,1.47,1.73A9.32,9.32,0,0,0,74.82,75l.24-.18-.29-.42L74.48,74l-.27-.44L74,73.09a15.39,15.39,0,0,1-.88-1.83,14.65,14.65,0,0,1-1-3.9c0-.17,0-.34,0-.51l0-.25a2,2,0,0,1,0-.25c0-.33,0-.67,0-1a12.13,12.13,0,0,1,.23-2,10.29,10.29,0,0,1,.58-1.91v0a2.72,2.72,0,0,1,2.09-1.63c15.26-2.36,29.78-3.4,35-11.06-.9,9-3.55,25.66-24.74,25C95,76,98.72,71.41,103.18,76.12Zm8.16-33.95h0C102.9,52.79,82.79,43,82.2,30.49,82,44.09,92.29,49.57,99.09,50.67a82.39,82.39,0,0,1-14.82,3.47c-2.79.45-5.64.86-8.53,1.31l-2.4.38c-1.75.28-3.52.59-5.27.92s-3.35.68-5,1.08l-1.56.39c-1.22.32-2.44.66-3.65,1-.81.25-1.62.52-2.42.81L54,60.62l-1.24.5c-.88.37-1.74.76-2.6,1.17h0c-.86.41-1.7.85-2.54,1.32-.52.3-1,.6-1.56.92l-.51.32c-.87.56-1.73,1.16-2.57,1.79l-.22.16c-.42.32-.84.66-1.26,1s-1.11,1-1.66,1.45l-.59.56c-.41.41-.82.83-1.22,1.26l-.21.22c-.67.73-1.33,1.49-2,2.3l-.26.33c-.37.48-.74,1-1.09,1.48q-.93,1.33-1.8,2.79c-.43.72-.84,1.47-1.24,2.24s-.83,1.67-1.22,2.55c-.13.28-.25.57-.37.86,0,0,0-.53,0-1.5,0-1.12.1-2.82.34-5,.16-1.48.4-3.18.75-5,.16-.86.35-1.75.56-2.67C36,49.83,53,16,115.58,15.28,117.27,28.22,115.46,36.58,111.34,42.17ZM90.09,65.7A2.47,2.47,0,1,0,87.38,63,2.49,2.49,0,0,0,90.09,65.7Z" fill="url(#linear-gradient-3)"/></svg>