<svg id="Layer_1" data-name="Layer 1" xmlns="http://www.w3.org/2000/svg" xmlns:xlink="http://www.w3.org/1999/xlink" viewBox="0 0 182.84 70.07"><defs><linearGradient id="linear-gradient" x1="1.38" y1="35.9" x2="182.49" y2="35.9" gradientUnits="userSpaceOnUse"><stop offset="0" stop-color="#4db8c4"/><stop offset="0.24" stop-color="#63bfb5"/><stop offset="0.55" stop-color="#83ca9e"/><stop offset="1" stop-color="#4db8c4"/></linearGradient></defs><path d="M102.53,25.54H101c-.17,1.05-.32,2.06-.49,3.06-.07.42-.45.64-.73.42a.6.6,0,0,1-.14-.55c.14-1,.3-1.95.46-3-.36,0-.65,0-.92,0-.54-.06-.74.13-.79.64-.1.8-.26,1.59-.38,2.38-.06.29-.15.55-.56.57s-.47-.19-.42-.54c.18-1,.33-2,.49-3H95.86l-.1.65c-.13.78-.25,1.55-.36,2.33-.09.62-.53.56-1,.58s-.58-.13-.48-.56A8.78,8.78,0,0,0,94.13,27c0-1.26-.8-2-2.17-1.92a2.7,2.7,0,0,0-2.47,2.16c-.07.43-.16.86-.19,1.28s-.23.55-.68.55H55.12c-.51,0-.61-.18-.53-.61.17-1,.32-2,.49-3.08l.29-1.85H53.83c-.3,1.86-.63,3.67-.85,5.49-.08.62.58,1.13,1.28,1.18a7,7,0,0,0,.79,0q16.42,0,32.83,0a12.65,12.65,0,0,1,3.21.37,5.31,5.31,0,0,0,1.62-.09c.4-.06.8-.22,1.2-.26a13.27,13.27,0,0,1,1.41,0h1.12c.57,0,1.15,0,1.71-.06.2,0,.4,0,.6,0a13.77,13.77,0,0,0,1.57.09A1.76,1.76,0,0,0,102,29.06C102.21,27.89,102.34,26.73,102.53,25.54ZM92.4,28.22l-.07.42c-.15.91-.54,1.1-1.32.64a.36.36,0,0,1-.15-.32,9.43,9.43,0,0,1,.31-1.84,1.39,1.39,0,0,1,.76-.8c.49-.13.57.35.6.7a9.87,9.87,0,0,1-.1,1.2ZM50.93,24.31c-.22,1.37-.45,2.75-.65,4.12-.06.47-.26.67-.77.65q-1.29,0-2.58,0c-.52,0-.67-.16-.57-.64.13-.63.21-1.26.31-1.87H45.05c-.11.68-.22,1.31-.31,1.95a1.39,1.39,0,0,0,1.53,1.71h3.44a2,2,0,0,0,2.18-1.8c.23-1.44.46-2.87.68-4.3,0-.19,0-.37.07-.58H51.09C51,23.82,51,24.07,50.93,24.31ZM103,30.15h1.53l1.05-6.6H104.1ZM49.36,26.2c-.46.07-.78-.05-.73-.53s.4-.53.81-.58c.16,0,.34-.27.5-.42-.77-.15-1.47-.23-2,.4a3,3,0,0,0-.29,1.1h.11l-.4.85,2.25-.17.1-.64ZM37.64,29.54a1,1,0,0,0,1.11-.9.75.75,0,0,0-.77-1h0a1.17,1.17,0,0,0-1.16.95.76.76,0,0,0,.17.64.84.84,0,0,0,.66.28Zm4,0a1.1,1.1,0,0,0,1.12-.94.79.79,0,0,0-.17-.66.86.86,0,0,0-.66-.27,1.15,1.15,0,0,0-1.15.91.8.8,0,0,0,.15.69.93.93,0,0,0,.7.27ZM85,14.63a4.87,4.87,0,0,0-5.11-3.57,11.76,11.76,0,0,0-2.8.39c0,.09.06.19.08.28.13.45.27.91.37,1.37s.22.47.47.47l.31,0a4.93,4.93,0,0,1,1-.09,2.35,2.35,0,0,1,2.51,2A19.54,19.54,0,0,1,82.19,18c0,.33.07.68.11,1a.63.63,0,0,1-.07.37,1,1,0,0,0,0,.11l-.06.26H73.2l0-.29c.06-.39.13-.79.2-1.19.14-.9.29-1.73.39-2.59a3.85,3.85,0,0,0-1.56-3.92A4.41,4.41,0,0,0,69.69,11a6.2,6.2,0,0,0-2.4.54,5.29,5.29,0,0,0-3.27,4c-.16.68-.26,1.38-.37,2.06-.07.48-.14,1-.24,1.46,0,.23-.33.77-.69.79s-.59,0-1,0H60.43l.16-1a10.79,10.79,0,0,0,0-4.06C60.07,12.34,58.11,11,55.21,11H55.1a1.5,1.5,0,0,0-.24,0c-.38.61-.74,1.23-1.12,1.88-.05.1-.12.2-.17.29l.39.06,1.12.13c1.42.18,2.23.89,2.32,2.07a17.48,17.48,0,0,1,0,2.4c0,.35,0,.7,0,1a.92.92,0,0,1-.26.68,1.16,1.16,0,0,1-.77.24H53.3l-1.61,0h0a.42.42,0,0,0-.25.05s0,0-.07.26a12.12,12.12,0,0,1-.28,1.67c-.06.23,0,.31,0,.33s.09.07.38.07h0l7.2,0h5a3.7,3.7,0,0,1,.92.08l1.23.33c.6.16,1.21.32,1.84.46a5.8,5.8,0,0,0,1.21.13,4.64,4.64,0,0,0,2.35-.62,2.82,2.82,0,0,1,1.35-.38H83.4A4.35,4.35,0,0,0,84.5,22a1.24,1.24,0,0,0,1.07-1.1A18.85,18.85,0,0,0,85,14.63ZM70.26,18,70,19.87a.92.92,0,0,1-.89.88,1.89,1.89,0,0,1-.38-.05,14.65,14.65,0,0,1-1.62-.44.7.7,0,0,1-.47-.67c.22-1.45.45-2.93.76-4.4a2.33,2.33,0,0,1,1.89-1.84h0A1.57,1.57,0,0,1,70.58,15,17.91,17.91,0,0,1,70.43,17c0,.27-.06.53-.09.81l0,.27ZM45.09,24.67A6.16,6.16,0,0,0,48,21.76a3.8,3.8,0,0,0-1.3-4.84,17.28,17.28,0,0,0-1.81-1.07L44,15.34l-.36-.21.39-.26c.1-.06.2-.14.3-.21a6.58,6.58,0,0,1,.76-.49A3.94,3.94,0,0,1,47,13.68a5.06,5.06,0,0,1,1,.1h.13a1.07,1.07,0,0,0,.23,0c.4-.56.77-1.13,1.15-1.74l.23-.35a7.63,7.63,0,0,0-2.34-.33,10.46,10.46,0,0,0-2.33.27c-2.16.51-4.64,2.24-5,4.83l0,.11a1.42,1.42,0,0,0,0,.56,1.76,1.76,0,0,0,.61.17,7.44,7.44,0,0,1,3.53,1.38A2.2,2.2,0,0,1,45,21a3.35,3.35,0,0,1-2.12,2,5.53,5.53,0,0,1-1.94.39,3.42,3.42,0,0,1-2.2-.76c-1-.84-1.33-2.06-.89-3.73.07-.25.16-.5.24-.76l0-.11-.52,0c-.88-.07-1.71-.14-2.54-.19a.45.45,0,0,0-.13.1c-.94,2.53-.67,4.51.83,6.06a6.87,6.87,0,0,0,4.94,1.75A9.26,9.26,0,0,0,45.09,24.67Zm51.49-2.6a4.06,4.06,0,0,0,3.64-3c.43-2.46.82-5,1.2-7.38.2-1.27.4-2.55.61-3.83a.3.3,0,0,0,0-.16.35.35,0,0,0-.16,0h0l-1.42,0c-.46,0-.87,0-1.25,0H99.1a.47.47,0,0,0-.24,0,.54.54,0,0,0-.09.29c-.31,2-.63,4-1,6-.11.71-.23,1.42-.34,2.13l-.12.75c-.09.64-.19,1.29-.34,1.94-.07.32-.46,1-.88,1a6.9,6.9,0,0,1-1,.06H93.68s.47-3,.6-3.81c.41-2.6.84-5.28,1.28-7.93,0-.25,0-.33,0-.35a.4.4,0,0,0-.24-.05H95.2c-.22,0-.46,0-.73,0H92.91a3.27,3.27,0,0,0-.5,0,2.15,2.15,0,0,0-.1.47L90.45,19.81H88.67a.37.37,0,0,0,0,.15q0,.38-.12.75c-.07.41-.14.84-.18,1.26a.38.38,0,0,0,.12.16H92C93.22,22.14,94.89,22.13,96.58,22.07Zm9.16-.06s.07-.08.11-.31c.25-1.69.53-3.4.79-5.06.1-.6.2-1.2.29-1.8l0-.27.24-1.51c.27-1.68.54-3.42.83-5.13,0-.21,0-.25,0-.26a.33.33,0,0,0-.18,0h-.06l-.63,0h-1a2.89,2.89,0,0,0-1.2.11c-.13.1-.19.52-.29,1.1l-.44,2.8c-.52,3.27-1.06,6.65-1.6,10,0,.26,0,.34,0,.36s.12.05.25.05H103c.4,0,.8,0,1.2,0s.86,0,1.28,0h.07C105.68,22.05,105.73,22,105.74,22ZM93.41,3.72a1.16,1.16,0,0,0-.27,1.67,1.19,1.19,0,0,1-.2.1c-.36,0-.69,0-.7.55s.23.56.66.52l2.72-.22c.33,0,.46-.17.45-.45s0-.4,0-.62c-.35,0-.71.16-.9.05a4.45,4.45,0,0,1-.87-.81,2.32,2.32,0,0,1,.85-.27c.74.09.83-.36,1-.87A2.85,2.85,0,0,0,93.41,3.72Zm57.36,28.34a1.38,1.38,0,0,1-1.16,1,1,1,0,0,1-1.08-1.21,1.37,1.37,0,0,1,1.17-1A1,1,0,0,1,150.77,32.06Zm5.89-15.82a1.33,1.33,0,0,1-1.29,1.07.92.92,0,0,1-1-1.07,1.33,1.33,0,0,1,1.29-1.07A.92.92,0,0,1,156.66,16.24Zm1.52.4a.9.9,0,0,1-.06.22l0,.11-.05.11a2.32,2.32,0,0,1-.22.41,3.79,3.79,0,0,1-.65.74l-.41.29a4.69,4.69,0,0,1-.46.21l-.49.14a4.13,4.13,0,0,1-.49.07,2.68,2.68,0,0,1-.49,0,2.43,2.43,0,0,1-.47-.08,1.94,1.94,0,0,1-.42-.17,1.38,1.38,0,0,1-.36-.26,1.76,1.76,0,0,1-.45-.7,1.86,1.86,0,0,1-.1-.39,2.83,2.83,0,0,1,0-.41l.09,0a2.13,2.13,0,0,0,.14.35,2,2,0,0,0,.18.32,1.56,1.56,0,0,0,.5.49,1.79,1.79,0,0,0,.32.13,1.28,1.28,0,0,0,.34.07,2.16,2.16,0,0,0,.36,0,2.25,2.25,0,0,0,.36-.06,1.9,1.9,0,0,0,.36-.12l.34-.18.33-.2.34-.19.69-.44.36-.24.19-.13.2-.13Zm0,0a.9.9,0,0,1-.06.22l0,.11-.05.11a2.32,2.32,0,0,1-.22.41,3.79,3.79,0,0,1-.65.74l-.41.29a4.69,4.69,0,0,1-.46.21l-.49.14a4.13,4.13,0,0,1-.49.07,2.68,2.68,0,0,1-.49,0,2.43,2.43,0,0,1-.47-.08,1.94,1.94,0,0,1-.42-.17,1.38,1.38,0,0,1-.36-.26,1.76,1.76,0,0,1-.45-.7,1.86,1.86,0,0,1-.1-.39,2.83,2.83,0,0,1,0-.41l.09,0a2.13,2.13,0,0,0,.14.35,2,2,0,0,0,.18.32,1.56,1.56,0,0,0,.5.49,1.79,1.79,0,0,0,.32.13,1.28,1.28,0,0,0,.34.07,2.16,2.16,0,0,0,.36,0,2.25,2.25,0,0,0,.36-.06,1.9,1.9,0,0,0,.36-.12l.34-.18.33-.2.34-.19.69-.44.36-.24.19-.13.2-.13Zm-1.52-.4a1.33,1.33,0,0,1-1.29,1.07.92.92,0,0,1-1-1.07,1.33,1.33,0,0,1,1.29-1.07A.92.92,0,0,1,156.66,16.24Zm-5.89,15.82a1.38,1.38,0,0,1-1.16,1,1,1,0,0,1-1.08-1.21,1.37,1.37,0,0,1,1.17-1A1,1,0,0,1,150.77,32.06Zm4.93-16.89a1.33,1.33,0,0,0-1.29,1.07.92.92,0,0,0,1,1.07,1.33,1.33,0,0,0,1.29-1.07A.92.92,0,0,0,155.7,15.17Zm2.4,1.43-.2.13-.19.13-.36.24-.69.44-.34.19-.33.2-.34.18a1.9,1.9,0,0,1-.36.12,2.25,2.25,0,0,1-.36.06,2.16,2.16,0,0,1-.36,0,1.28,1.28,0,0,1-.34-.07,1.79,1.79,0,0,1-.32-.13,1.56,1.56,0,0,1-.5-.49,2,2,0,0,1-.18-.32,2.13,2.13,0,0,1-.14-.35L153,17a2.83,2.83,0,0,0,0,.41,1.86,1.86,0,0,0,.1.39,1.76,1.76,0,0,0,.45.7,1.38,1.38,0,0,0,.36.26,1.94,1.94,0,0,0,.42.17,2.43,2.43,0,0,0,.47.08,2.68,2.68,0,0,0,.49,0,4.13,4.13,0,0,0,.49-.07l.49-.14a4.69,4.69,0,0,0,.46-.21l.41-.29a3.79,3.79,0,0,0,.65-.74,2.32,2.32,0,0,0,.22-.41l.05-.11,0-.11a.9.9,0,0,0,.06-.22Zm0,0-.2.13-.19.13-.36.24-.69.44-.34.19-.33.2-.34.18a1.9,1.9,0,0,1-.36.12,2.25,2.25,0,0,1-.36.06,2.16,2.16,0,0,1-.36,0,1.28,1.28,0,0,1-.34-.07,1.79,1.79,0,0,1-.32-.13,1.56,1.56,0,0,1-.5-.49,2,2,0,0,1-.18-.32,2.13,2.13,0,0,1-.14-.35L153,17a2.83,2.83,0,0,0,0,.41,1.86,1.86,0,0,0,.1.39,1.76,1.76,0,0,0,.45.7,1.38,1.38,0,0,0,.36.26,1.94,1.94,0,0,0,.42.17,2.43,2.43,0,0,0,.47.08,2.68,2.68,0,0,0,.49,0,4.13,4.13,0,0,0,.49-.07l.49-.14a4.69,4.69,0,0,0,.46-.21l.41-.29a3.79,3.79,0,0,0,.65-.74,2.32,2.32,0,0,0,.22-.41l.05-.11,0-.11a.9.9,0,0,0,.06-.22Zm-2.73.71a1.33,1.33,0,0,0,1.29-1.07.92.92,0,0,0-1-1.07,1.33,1.33,0,0,0-1.29,1.07A.92.92,0,0,0,155.37,17.31ZM172.69,3.49H127.13c-6.25,0-12,4.83-12.94,10.8L107.64,57.8c-.9,6,3.44,10.8,9.69,10.8h45.55c6.25,0,12-4.83,12.94-10.8l6.55-43.51C183.27,8.32,178.94,3.49,172.69,3.49ZM133.76,56.6h-1.32l-.85-.06-.84-.1-.21,0-.21,0-.2,0-.1,0-.1,0-.11,0-.1,0-.19-.06-.1,0-.1,0-.17-.06s0,0,0,0,0,0,0,0l0,0,.15.09.09,0,.1.05.18.08.1,0,.1,0a7.52,7.52,0,0,0,.8.27l.41.1.42.09.42.07.43.06.86.12.21,0h0s.06,0,0,.08A6.29,6.29,0,0,1,132,59h0l-.39-.06-.63-.08a9.87,9.87,0,0,1-1.25-.24,7.59,7.59,0,0,1-1.16-.41,4.53,4.53,0,0,1-.54-.27,3.36,3.36,0,0,1-.51-.32,4.4,4.4,0,0,1-.85-.82,3.27,3.27,0,0,1-.32-.5,4.12,4.12,0,0,1-.24-.52s0,0,0,0h0s0,0,0,0c0,.19.1.38.17.57a5.77,5.77,0,0,0,.27.56l.08.13.09.13.09.13.1.12a3.64,3.64,0,0,0,.43.45,5.38,5.38,0,0,0,1,.74,6.19,6.19,0,0,0,.58.28q.3.13.6.24c.21.08.42.14.63.21l.63.18h0c.16,0,.16.24,0,.33a10.06,10.06,0,0,1-2.24.92.75.75,0,0,1-.42,0c-.26-.1-.51-.19-.75-.3l-.18-.08-.09,0-.09-.05-.18-.09-.08-.05-.09,0a4.09,4.09,0,0,1-.64-.45,4.42,4.42,0,0,1-1.31-1.88l-.07-.18c0-.06,0-.13,0-.19l0-.1,0-.09,0-.1,0,0v-.05l0-.2s0-.06,0-.1v-.2a.31.31,0,0,1,0-.1l0-.2c0-.27,0-.55,0-.83v-.11a.34.34,0,0,1,0-.1v-.32s0-.07,0-.1l0-.21,0-.22,0-.21a1.55,1.55,0,0,1,0-.21l0-.19s0,0,0,0h0s0,0,0,0l-.12.39,0,.22-.06.21,0,.22,0,.1,0,.11,0,.22s0,.07,0,.1l0,.11a8.5,8.5,0,0,0-.07.87V57l0,.21v.21l0,.11a.36.36,0,0,0,0,.1c0,.07,0,.14,0,.21l0,.21a5.36,5.36,0,0,0,.3.79,4.8,4.8,0,0,0,1,1.37,6.3,6.3,0,0,0,.68.58c.21.15.06.5-.22.53a20.58,20.58,0,0,1-3.26,0,.72.72,0,0,1-.61-.38c-2.52-4.79,3.78-13.19,7.09-15.64a0,0,0,0,1,.05,0c-.82,2.5-4.87,9.54,4.72,9.55l0,0A3,3,0,0,1,133.76,56.6Zm17-20c4.39,1,6.42-1,8.17,1-7.66,5.92-22.44-3-35.64,11a24,24,0,0,1,1.33-5.11,3.94,3.94,0,0,0,.53.38l.12-.08-.1-.18-.1-.17-.18-.36a.54.54,0,0,1-.05-.11c.19-.46.4-.89.62-1.32a.3.3,0,0,0,.08.08,3.17,3.17,0,0,0,.71.54l.12-.08-.1-.17-.1-.17c-.06-.12-.13-.24-.18-.36s-.14-.3-.2-.45a16.26,16.26,0,0,1,.91-1.41v0a3.79,3.79,0,0,0,.58.68A3.17,3.17,0,0,0,128,41l.12-.08-.1-.17a1.62,1.62,0,0,1-.1-.18,2.31,2.31,0,0,1-.18-.35,5.86,5.86,0,0,1-.3-.75,4.74,4.74,0,0,1-.15-.5c.29-.36.58-.7.89-1a5.5,5.5,0,0,0,.28.48,3.79,3.79,0,0,0,.58.68,3.17,3.17,0,0,0,.71.54l.12-.08-.1-.17-.1-.18-.18-.35a5.33,5.33,0,0,1-.3-.75,6.14,6.14,0,0,1-.23-.94,10,10,0,0,1,.78-.68l.49-.4,0,.08,0,.12a.42.42,0,0,1,0,.1l0,.11,0,.07a4.68,4.68,0,0,0,.4.73,4.19,4.19,0,0,0,.57.68,3.7,3.7,0,0,0,.71.54l.13-.08-.11-.17-.09-.18a3.9,3.9,0,0,1-.19-.35,6.13,6.13,0,0,1-.29-.75,1.46,1.46,0,0,1-.07-.19c0-.19-.1-.39-.14-.58a5.56,5.56,0,0,1-.09-.82v0l.54-.34.66-.4.57-.31c0,.16,0,.32.07.48l0,.11,0,.12,0,.12h0l0,.1a.25.25,0,0,1,0,.07s0,0,0,0l0,.11a.76.76,0,0,1,0,.11l0,.11a4.38,4.38,0,0,0,.43.8,4.19,4.19,0,0,0,.57.68,3.7,3.7,0,0,0,.71.54l.13-.08-.11-.17-.09-.18a3.9,3.9,0,0,1-.19-.35,6.83,6.83,0,0,1-.29-.75,5.67,5.67,0,0,1-.3-1.59v-.42c0-.06,0-.13,0-.2a1.36,1.36,0,0,1,0-.2l.08-.11.31-.14c.57-.25,1.16-.48,1.76-.7a1,1,0,0,0,0,.17.53.53,0,0,0,0,.13v.13a4.71,4.71,0,0,0,.08,1l0,.12,0,.11,0,.12,0,.11a.36.36,0,0,0,0,.11l0,.12a.42.42,0,0,1,0,.1l.05.11a4.38,4.38,0,0,0,.43.8,4.19,4.19,0,0,0,.57.68,3.7,3.7,0,0,0,.71.54l.13-.08-.11-.17-.09-.18a3.9,3.9,0,0,1-.19-.35,6.13,6.13,0,0,1-.29-.75,5.67,5.67,0,0,1-.3-1.59c0-.14,0-.28,0-.41s0-.14,0-.21a1.49,1.49,0,0,1,0-.21,3.9,3.9,0,0,1,.19-.82.43.43,0,0,1,0,0c.83-.26,1.67-.48,2.52-.69h0c0,.09-.05.18-.07.27a.68.68,0,0,0,0,.14l0,.13,0,.27s0,.09,0,.13v.13a4.66,4.66,0,0,0,.08,1l0,.12,0,.11,0,.12,0,.11a.56.56,0,0,1,0,.12l0,.11a.76.76,0,0,0,0,.11l0,.1a4.07,4.07,0,0,0,.43.8,3.79,3.79,0,0,0,.58.68,3.17,3.17,0,0,0,.71.54l.12-.08-.1-.17-.1-.17a3,3,0,0,1-.18-.36,4.89,4.89,0,0,1-.3-.75,5.67,5.67,0,0,1-.3-1.59c0-.14,0-.27,0-.41a1.48,1.48,0,0,1,0-.21c0-.07,0-.14,0-.21a4.86,4.86,0,0,1,.19-.82.3.3,0,0,1,0-.1l0-.1,0-.1a.3.3,0,0,1,0-.1h0a.37.37,0,0,1,.25-.19c.65-.13,1.3-.26,2-.37a.31.31,0,0,1,.36.43c-.05.14-.1.29-.14.43A5.35,5.35,0,0,0,144,33.9l0,.25c0,.09,0,.17,0,.25l.06.25a2.17,2.17,0,0,0,.07.24,4.71,4.71,0,0,0,.39.89,4.19,4.19,0,0,0,.57.76,3,3,0,0,0,.73.6l.12-.08-.11-.18-.1-.19a1.74,1.74,0,0,1-.1-.19l-.09-.19a6.48,6.48,0,0,1-.28-.81,5.91,5.91,0,0,1-.21-1.73,1.7,1.7,0,0,0,0-.22v-.12a.37.37,0,0,0,0-.11c0-.15,0-.29.07-.44a4.59,4.59,0,0,1,.24-.88,4.65,4.65,0,0,1,.39-.85h0a1.53,1.53,0,0,1,1.08-.72c7.22-1,14-1.5,16.95-4.89C162.91,29.51,160.57,36.88,150.8,36.6Zm16.91-18.7a12.69,12.69,0,0,1-2.7,4.73c-4.61,4.7-13.27.35-12.71-5.17-1,6,3.4,8.44,6.47,8.93a44,44,0,0,1-7.09,1.53c-1.32.2-2.67.38-4,.58l-1.13.17c-.84.12-1.67.26-2.51.41s-1.59.3-2.39.47l-.74.18c-.59.14-1.18.29-1.76.46l-1.17.35-.73.25-.61.22c-.43.16-.86.33-1.28.52h0c-.43.18-.85.38-1.27.59l-.78.4-.26.14c-.44.25-.88.51-1.31.79l-.11.08-.65.44c-.29.21-.58.42-.86.65l-.31.24-.66.56-.11.09c-.36.33-.71.67-1.06,1l-.14.15c-.2.21-.41.43-.6.65-.35.4-.69.81-1,1.24s-.49.65-.72,1-.5.74-.74,1.13c-.08.12-.16.25-.23.38s0-.24.1-.67.23-1.24.48-2.19c.18-.66.4-1.41.69-2.23.13-.37.27-.77.43-1.17,3.43-8.79,13.54-23.76,42.59-24.07A23.68,23.68,0,0,1,167.71,17.9Zm-14.58-.15a1.76,1.76,0,0,0,.45.7,1.38,1.38,0,0,0,.36.26,1.94,1.94,0,0,0,.42.17,2.43,2.43,0,0,0,.47.08,2.68,2.68,0,0,0,.49,0,4.13,4.13,0,0,0,.49-.07l.49-.14a4.69,4.69,0,0,0,.46-.21l.41-.29a3.79,3.79,0,0,0,.65-.74,2.32,2.32,0,0,0,.22-.41l.05-.11,0-.11a.9.9,0,0,0,.06-.22l-.08,0-.2.13-.19.13-.36.24-.69.44-.34.19-.33.2-.34.18a1.9,1.9,0,0,1-.36.12,2.25,2.25,0,0,1-.36.06,2.16,2.16,0,0,1-.36,0,1.28,1.28,0,0,1-.34-.07,1.79,1.79,0,0,1-.32-.13,1.56,1.56,0,0,1-.5-.49,2,2,0,0,1-.18-.32,2.13,2.13,0,0,1-.14-.35L153,17a2.83,2.83,0,0,0,0,.41A1.86,1.86,0,0,0,153.13,17.75Zm2.24-.44a1.33,1.33,0,0,0,1.29-1.07.92.92,0,0,0-1-1.07,1.33,1.33,0,0,0-1.29,1.07A.92.92,0,0,0,155.37,17.31Zm-4.6,14.75a1.38,1.38,0,0,1-1.16,1,1,1,0,0,1-1.08-1.21,1.37,1.37,0,0,1,1.17-1A1,1,0,0,1,150.77,32.06Zm3.64-15.82a1.33,1.33,0,0,1,1.29-1.07.92.92,0,0,1,1,1.07,1.33,1.33,0,0,1-1.29,1.07A.92.92,0,0,1,154.41,16.24Zm3.77.4a.9.9,0,0,1-.06.22l0,.11-.05.11a2.32,2.32,0,0,1-.22.41,3.79,3.79,0,0,1-.65.74l-.41.29a4.69,4.69,0,0,1-.46.21l-.49.14a4.13,4.13,0,0,1-.49.07,2.68,2.68,0,0,1-.49,0,2.43,2.43,0,0,1-.47-.08,1.94,1.94,0,0,1-.42-.17,1.38,1.38,0,0,1-.36-.26,1.76,1.76,0,0,1-.45-.7,1.86,1.86,0,0,1-.1-.39,2.83,2.83,0,0,1,0-.41l.09,0a2.13,2.13,0,0,0,.14.35,2,2,0,0,0,.18.32,1.56,1.56,0,0,0,.5.49,1.79,1.79,0,0,0,.32.13,1.28,1.28,0,0,0,.34.07,2.16,2.16,0,0,0,.36,0,2.25,2.25,0,0,0,.36-.06,1.9,1.9,0,0,0,.36-.12l.34-.18.33-.2.34-.19.69-.44.36-.24.19-.13.2-.13Zm0,0a.9.9,0,0,1-.06.22l0,.11-.05.11a2.32,2.32,0,0,1-.22.41,3.79,3.79,0,0,1-.65.74l-.41.29a4.69,4.69,0,0,1-.46.21l-.49.14a4.13,4.13,0,0,1-.49.07,2.68,2.68,0,0,1-.49,0,2.43,2.43,0,0,1-.47-.08,1.94,1.94,0,0,1-.42-.17,1.38,1.38,0,0,1-.36-.26,1.76,1.76,0,0,1-.45-.7,1.86,1.86,0,0,1-.1-.39,2.83,2.83,0,0,1,0-.41l.09,0a2.13,2.13,0,0,0,.14.35,2,2,0,0,0,.18.32,1.56,1.56,0,0,0,.5.49,1.79,1.79,0,0,0,.32.13,1.28,1.28,0,0,0,.34.07,2.16,2.16,0,0,0,.36,0,2.25,2.25,0,0,0,.36-.06,1.9,1.9,0,0,0,.36-.12l.34-.18.33-.2.34-.19.69-.44.36-.24.19-.13.2-.13Zm-1.52-.4a1.33,1.33,0,0,1-1.29,1.07.92.92,0,0,1-1-1.07,1.33,1.33,0,0,1,1.29-1.07A.92.92,0,0,1,156.66,16.24ZM13.24,27.43a1.28,1.28,0,0,1,.82-.3.92.92,0,0,1,.56.19.82.82,0,0,1,.34.54l4-3.33a2.32,2.32,0,0,0-.49-3.91l0,0a8.14,8.14,0,0,0-3.26-.68A9.22,9.22,0,0,0,10.72,21a11.07,11.07,0,0,0-3.51,3,8.85,8.85,0,0,0-1.76,4.12l-.68,4.38a2.66,2.66,0,0,0-2.63,2.24l-.76,5H3.69L2,51a4.83,4.83,0,0,0,4.85,5.53H8.52l2.54-16.84h1.8a5.23,5.23,0,0,0,5.2-4.39l.42-2.82H12.15l.67-4.38A1,1,0,0,1,13.24,27.43Zm10.1,5.09H21.43l-2.87,19a4.4,4.4,0,0,0,4.41,5h2.21L28,37.81A4.65,4.65,0,0,0,23.34,32.52Zm5.74-8.67a3.12,3.12,0,0,0-2.46-1,4.27,4.27,0,0,0-2.81,1,4.09,4.09,0,0,0-1.47,2.56A3,3,0,0,0,23,29a3.19,3.19,0,0,0,2.52,1,4.3,4.3,0,0,0,4.21-3.61A3.06,3.06,0,0,0,29.08,23.85ZM47.46,45.7a8,8,0,0,0-2.61-2.62,17.11,17.11,0,0,0-3.71-1.76A10.93,10.93,0,0,0,39.78,41a5.55,5.55,0,0,1-1.49-.45.9.9,0,0,1-.53-1,2,2,0,0,1,.58-1.15,2.33,2.33,0,0,1,1.14-.53,5.93,5.93,0,0,1,1.53,0,2.93,2.93,0,0,1,1.14.34,3.92,3.92,0,0,1,.89.65,5.07,5.07,0,0,1,.62.74l2.77-1.49a2.92,2.92,0,0,0,.06-5.18l-.05,0a11.1,11.1,0,0,0-5.13-1.15,11.73,11.73,0,0,0-4.69,1,10.5,10.5,0,0,0-3.82,2.78,8.3,8.3,0,0,0-1.94,4.27,5.54,5.54,0,0,0,.69,3.86,7.84,7.84,0,0,0,2.88,2.68,12.27,12.27,0,0,0,4,1.36,11.22,11.22,0,0,1,1.29.25,3,3,0,0,1,1.14.5,1,1,0,0,1,.36,1,1.43,1.43,0,0,1-.54.93,2.55,2.55,0,0,1-1,.47,5.83,5.83,0,0,1-1.25.13,3.62,3.62,0,0,1-1.6-.31,3.67,3.67,0,0,1-1-.71c-.24-.27-.44-.48-.59-.66l-4.09,1.62a2.16,2.16,0,0,0-.76,3.6l0,0a8.87,8.87,0,0,0,2.82,1.71,13.18,13.18,0,0,0,3.45.8,11.55,11.55,0,0,0,9.28-3.47A7.61,7.61,0,0,0,48,49.31,5.08,5.08,0,0,0,47.46,45.7Zm23-13.18H68.4l-2,13.3a4.25,4.25,0,0,1-.84,2.06A5.13,5.13,0,0,1,64,49.27a4.82,4.82,0,0,1-2.2.62,3.72,3.72,0,0,1-2.11-.55,3.23,3.23,0,0,1-1.3-1.46,3.71,3.71,0,0,1-.27-2.06l1.29-8.45a4.25,4.25,0,0,0-4.28-4.85H52.72l-2.3,15.32A8.3,8.3,0,0,0,51,52.55a7.73,7.73,0,0,0,3,3.38,8.38,8.38,0,0,0,4.61,1.26,9.92,9.92,0,0,0,3.4-.58A11.24,11.24,0,0,0,65,55a1.38,1.38,0,0,0,1.39,1.56h5.76L75,37.66A4.53,4.53,0,0,0,70.46,32.52Zm28.73,0a2.71,2.71,0,0,0-1.76.64,2.64,2.64,0,0,0-.9,1.62,7.74,7.74,0,0,0-2.36-2.08,6.77,6.77,0,0,0-3.39-.8,13.85,13.85,0,0,0-5.17,1,16.11,16.11,0,0,0-7.92,6.76,13.28,13.28,0,0,0-1.75,4.9,11.28,11.28,0,0,0,.79,6.4,10.52,10.52,0,0,0,4,4.6A11.42,11.42,0,0,0,87,57.24a8.21,8.21,0,0,0,3.65-.81,13,13,0,0,0,3-2.07L91.41,68.6H93.2a6.43,6.43,0,0,0,6.39-5.41l4.64-30.67Zm-4.78,12a6.38,6.38,0,0,1-1.16,2.89A7,7,0,0,1,91,49.5a5.74,5.74,0,0,1-2.89.77,4.46,4.46,0,0,1-4.29-2.84,5.72,5.72,0,0,1-.29-2.89,6.69,6.69,0,0,1,1.16-2.86,7.13,7.13,0,0,1,2.27-2.07,5.74,5.74,0,0,1,2.89-.79,4.5,4.5,0,0,1,2.64.79,4.64,4.64,0,0,1,1.66,2.07A5.34,5.34,0,0,1,94.41,44.54Z" fill="url(#linear-gradient)"/></svg>