<svg id="Layer_1" data-name="Layer 1" xmlns="http://www.w3.org/2000/svg" xmlns:xlink="http://www.w3.org/1999/xlink" viewBox="0 0 105.59 70.07"><defs><linearGradient id="linear-gradient" x1="4.23" y1="35.04" x2="101.36" y2="35.04" gradientUnits="userSpaceOnUse"><stop offset="0" stop-color="#4db8c4"/><stop offset="1" stop-color="#5cc1a3"/></linearGradient></defs><path d="M11.85,30.34v4.54h2.21a3.69,3.69,0,0,1,3.68,3.69v1.58H11.85V56.47h0A5.27,5.27,0,0,1,6.58,51.2V40.15h0a2.36,2.36,0,0,1-2.35-2.36V34.88H6.58V30.34a6.57,6.57,0,0,1,.92-3.4A6.85,6.85,0,0,1,10,24.48a6.65,6.65,0,0,1,3.43-.92,6.82,6.82,0,0,1,2.7.57h0a2.08,2.08,0,0,1,.65,3.41l-2.07,2a1.27,1.27,0,0,0-.55-.55,1.62,1.62,0,0,0-.73-.19,1.53,1.53,0,0,0-1.09.45A1.4,1.4,0,0,0,11.85,30.34Zm13.7,1.75a2.73,2.73,0,0,1-2-.76,2.73,2.73,0,0,1,0-3.86,2.83,2.83,0,0,1,3.88,0,2.69,2.69,0,0,1-1.91,4.62Zm-2.68,2.79h0a5.27,5.27,0,0,1,5.27,5.27V56.47h0a5.27,5.27,0,0,1-5.27-5.27Zm18.21,22a11.55,11.55,0,0,1-3.25-.68,9.38,9.38,0,0,1-2.77-1.56l0,0a2,2,0,0,1,.56-3.38l2.06-.88a3.8,3.8,0,0,0,.84.92,5.35,5.35,0,0,0,1.39.81,4.9,4.9,0,0,0,1.78.32,5.42,5.42,0,0,0,1.57-.22,2.84,2.84,0,0,0,1.21-.71,1.66,1.66,0,0,0,.46-1.23A1.5,1.5,0,0,0,44.35,49,3.86,3.86,0,0,0,43,48.32l-1.61-.42a15.52,15.52,0,0,1-3.81-1.27,8,8,0,0,1-2.83-2.24,5.23,5.23,0,0,1-1.07-3.31,6.15,6.15,0,0,1,1.13-3.7,7.56,7.56,0,0,1,3-2.39,9.32,9.32,0,0,1,3.94-.84,10.45,10.45,0,0,1,4.72,1.06l.05,0a2.81,2.81,0,0,1,.08,4.92l-.89.53a3.63,3.63,0,0,0-.85-1,5,5,0,0,0-1.43-.82,4.05,4.05,0,0,0-1.3-.25,5.49,5.49,0,0,0-1.71.17,2.65,2.65,0,0,0-1.29.74A1.93,1.93,0,0,0,38.58,41a1.34,1.34,0,0,0,.64,1.22,5.36,5.36,0,0,0,1.57.61c.61.15,1.2.31,1.76.48a22.43,22.43,0,0,1,3.57,1.53A8.41,8.41,0,0,1,48.81,47a4.76,4.76,0,0,1,1,3.15,5.74,5.74,0,0,1-1.25,3.66,7.93,7.93,0,0,1-3.23,2.38A8.94,8.94,0,0,1,41.08,56.86Zm13.24-8.38V34.88h0a5.27,5.27,0,0,1,5.27,5.27v7a4.42,4.42,0,0,0,.63,2.32,4.69,4.69,0,0,0,1.67,1.67,4.7,4.7,0,0,0,4.63,0,4.77,4.77,0,0,0,1.67-1.67,4.5,4.5,0,0,0,.62-2.32V34.88h0a5.29,5.29,0,0,1,5.28,5.27V56.47H70.8a2,2,0,0,1-2-2h0a8.24,8.24,0,0,1-2.65,1.84,8,8,0,0,1-3.29.68,8.23,8.23,0,0,1-4.29-1.15,8.74,8.74,0,0,1-3.1-3.09A8.24,8.24,0,0,1,54.32,48.48Zm44.51-13.6a2.73,2.73,0,0,0-2.74,2.74,8.19,8.19,0,0,0-2.59-2.38,7,7,0,0,0-3.63-.92,11,11,0,0,0-4.4.88,11.55,11.55,0,0,0-6.07,6.07,11.43,11.43,0,0,0,.65,10.15,11.7,11.7,0,0,0,4.11,4.13,11,11,0,0,0,5.71,1.53,7,7,0,0,0,3.63-.92,8.31,8.31,0,0,0,2.59-2.38V67.27A5.27,5.27,0,0,0,101.36,62V34.88Zm-3.9,14a6,6,0,0,1-2,2.29,5.33,5.33,0,0,1-3,.85,5.73,5.73,0,0,1-3-.84,6.17,6.17,0,0,1-2.17-2.28,6.25,6.25,0,0,1-.81-3.18,6.11,6.11,0,0,1,.81-3.15,6.28,6.28,0,0,1,2.17-2.29,5.74,5.74,0,0,1,3-.85,5.32,5.32,0,0,1,3,.85,6,6,0,0,1,2,2.29,6.71,6.71,0,0,1,.73,3.15A6.81,6.81,0,0,1,94.93,48.84ZM98.6,26.29H97.05c0,1.11,0,2.16,0,3.21,0,.44-.35.67-.67.44a.73.73,0,0,1-.22-.56c0-1,0-2.06,0-3.14-.36,0-.64,0-.92,0-.54-.07-.72.13-.69.67,0,.83,0,1.67,0,2.5,0,.3-.06.58-.45.6s-.5-.2-.5-.57c0-1.05,0-2.1,0-3.17H92V27c0,.81,0,1.63,0,2.44,0,.65-.43.59-.87.61s-.6-.14-.57-.59a9.39,9.39,0,0,0,0-1.59,2.21,2.21,0,0,0-2.46-2,2.23,2.23,0,0,0-2.1,2.27,12,12,0,0,0,0,1.34c0,.46-.15.58-.6.58Q68.73,30,52.1,30c-.5,0-.64-.19-.63-.65,0-1.07,0-2.15,0-3.23V24.19H49.94c0,2,0,3.86,0,5.77a1.55,1.55,0,0,0,1.46,1.25c.27,0,.54,0,.79,0q16.31,0,32.59,0a13.24,13.24,0,0,1,3.25.38,4.55,4.55,0,0,0,1.59-.1c.39,0,.76-.22,1.15-.26s.93,0,1.4,0,.74,0,1.11,0L95,31.13a5.83,5.83,0,0,1,.59,0,13.94,13.94,0,0,0,1.57.1A1.45,1.45,0,0,0,98.58,30C98.66,28.77,98.6,27.53,98.6,26.29ZM89,29.11v.43c0,1-.35,1.16-1.21.68a.5.5,0,0,1-.2-.33,10.56,10.56,0,0,1,0-1.95,1.22,1.22,0,0,1,.62-.84c.47-.13.63.37.71.74A8.93,8.93,0,0,1,89,29.11ZM47.18,25c0,1.44,0,2.88,0,4.33,0,.49-.15.69-.66.68-.86,0-1.71,0-2.57,0-.51,0-.68-.17-.66-.67,0-.66,0-1.32,0-2H41.7v2a1.7,1.7,0,0,0,1.79,1.8q1.71,0,3.42,0a1.72,1.72,0,0,0,1.88-1.9V24.81c0-.2,0-.39,0-.61H47.22C47.21,24.48,47.18,24.74,47.18,25Zm52.67,6.14h1.51V24.2H99.85ZM45.93,27c-.46.07-.79-.05-.82-.56s.31-.55.72-.6c.16,0,.29-.29.43-.44-.8-.17-1.5-.24-1.88.42A2.83,2.83,0,0,0,44.26,27h.11l-.26.89,2.2-.17V27C46.16,27,46,27,45.93,27ZM34.81,30.49a.9.9,0,0,0,1-.94.93.93,0,0,0-.93-1h0a1,1,0,0,0-1,1,.93.93,0,0,0,.26.67,1,1,0,0,0,.71.29Zm4,0a.91.91,0,0,0,1-1,1,1,0,0,0-.27-.7,1,1,0,0,0-.7-.28,1,1,0,0,0-1,1,.94.94,0,0,0,1,1ZM79.48,14.83a5.81,5.81,0,0,0-5.64-3.75,10.46,10.46,0,0,0-2.71.4l.12.3c.21.47.41,1,.58,1.44s.29.49.54.49l.3,0a4.67,4.67,0,0,1,1-.09,2.84,2.84,0,0,1,2.82,2.13,23.81,23.81,0,0,1,.78,2.67l.27,1.05a1,1,0,0,1,0,.39.53.53,0,0,0,0,.12l0,.26H68.56v-.29c0-.42,0-.85,0-1.26,0-.94,0-1.82,0-2.72a4.84,4.84,0,0,0-2.17-4.12A4.75,4.75,0,0,0,63.69,11a5.33,5.33,0,0,0-2.3.56,4.56,4.56,0,0,0-2.62,4.17c0,.72,0,1.45,0,2.17,0,.5,0,1,0,1.54,0,.24-.21.8-.57.83s-.57,0-1,0H55.9V19.2a12.76,12.76,0,0,0-.64-4.27A5.92,5.92,0,0,0,49.32,11h-.1A1.29,1.29,0,0,0,49,11c-.28.64-.54,1.29-.81,2a2,2,0,0,0-.12.31l.38,0,1.14.14a2.81,2.81,0,0,1,2.64,2.18,21.59,21.59,0,0,1,.38,2.52c0,.36.08.73.13,1.1a.79.79,0,0,1-.15.7.93.93,0,0,1-.72.26H47.19a.43.43,0,0,0-.24,0s0,.05,0,.28a11.4,11.4,0,0,1,0,1.75c0,.25,0,.33.05.36s.1.07.39.07h0c2.06,0,4.27,0,7.16,0h5a3.77,3.77,0,0,1,.92.09l1.28.34c.62.18,1.26.35,1.89.49a6.19,6.19,0,0,0,1.23.14,3.87,3.87,0,0,0,2.23-.66,2.49,2.49,0,0,1,1.28-.39H79.08a4,4,0,0,0,1.06-.12A1.08,1.08,0,0,0,81,21.43,22.3,22.3,0,0,0,79.48,14.83ZM65.37,18.41v.38c0,.51,0,1,0,1.55,0,.23,0,.92-.74.92a1.55,1.55,0,0,1-.39-.06,14,14,0,0,1-1.67-.45A.89.89,0,0,1,62,20c0-1.53,0-3.09.06-4.63a2,2,0,0,1,1.58-1.93h0c.71,0,1.44.82,1.58,1.76a19.63,19.63,0,0,1,.16,2l0,.85,0,.29Zm-23.93,7a5.13,5.13,0,0,0,2.4-3.06,4.65,4.65,0,0,0-2.06-5.09c-.61-.41-1.27-.76-2-1.13-.33-.17-.66-.34-1-.53l-.39-.21.34-.28.27-.22a5.08,5.08,0,0,1,.68-.52,3.3,3.3,0,0,1,1.84-.52,5.46,5.46,0,0,1,1,.11h.12a1,1,0,0,0,.23,0c.3-.59.58-1.19.87-1.83,0-.12.11-.24.17-.36a7.5,7.5,0,0,0-2.38-.35,9.29,9.29,0,0,0-2.27.28,5.34,5.34,0,0,0-4.19,5.07v.12a1.8,1.8,0,0,0,.06.6,2,2,0,0,0,.63.17,8.42,8.42,0,0,1,3.73,1.45,2.77,2.77,0,0,1,1.19,2.5A2.77,2.77,0,0,1,39,23.67a4.82,4.82,0,0,1-1.86.41,3.75,3.75,0,0,1-2.31-.8,4,4,0,0,1-1.47-3.91c0-.27.07-.53.12-.8l0-.12-.53,0c-.88-.08-1.71-.15-2.55-.2a.38.38,0,0,0-.11.11,6.35,6.35,0,0,0,1.78,6.36,7.62,7.62,0,0,0,5.19,1.84A7.83,7.83,0,0,0,41.44,25.38Zm50.71-2.74a3.38,3.38,0,0,0,3.13-3.18c0-2.59,0-5.21,0-7.75,0-1.34,0-2.69,0-4a.35.35,0,0,0,0-.16s0,0-.16,0h0l-1.4,0c-.46,0-.86,0-1.24,0h-.09c-.17,0-.21,0-.22,0s-.06.08-.06.31c0,2.08,0,4.2,0,6.25v3c0,.66,0,1.35,0,2,0,.34-.31,1-.72,1.06a6.5,6.5,0,0,1-1,.06H88.9v-4c0-2.74,0-5.56,0-8.34a.68.68,0,0,0-.06-.37.42.42,0,0,0-.25,0h-.11l-.72,0-.77,0h-.78a3.27,3.27,0,0,0-.5,0,3.12,3.12,0,0,0,0,.49V20.27H84.57l-.51,0h-.13a.42.42,0,0,0,0,.16v.78c0,.44,0,.89,0,1.33a.46.46,0,0,0,.15.16h3.48C88.82,22.71,90.48,22.71,92.15,22.64Zm9.09-.06a.68.68,0,0,0,.05-.33c0-1.77,0-3.57,0-5.31V14.76c0-.53,0-1.06,0-1.59,0-1.76,0-3.59,0-5.38,0-.22,0-.27,0-.27s-.06,0-.17,0H99.36a2.66,2.66,0,0,0-1.18.12c-.11.1-.11.54-.11,1.15v3c0,3.43,0,7,0,10.47,0,.27,0,.35.07.38a.39.39,0,0,0,.26.06h.08l1.2,0c.42,0,.85,0,1.27,0H101C101.18,22.62,101.23,22.59,101.24,22.58ZM86.09,3.36a1.25,1.25,0,0,0,0,1.76.91.91,0,0,1-.2.1c-.35,0-.67,0-.6.58s.32.59.74.55l2.67-.23c.32,0,.43-.18.37-.48S89,5.22,89,5c-.34,0-.68.17-.89,0a5.65,5.65,0,0,1-1-.85c.27-.1.55-.31.8-.28.75.09.77-.38.83-.92A2.55,2.55,0,0,0,86.09,3.36Z" fill="url(#linear-gradient)"/></svg>