<svg id="Layer_1" data-name="Layer 1" xmlns="http://www.w3.org/2000/svg" viewBox="0 0 33.63 33.63"><path d="M33.06,7.71a6.23,6.23,0,0,0-6-4.63H6.76A6.22,6.22,0,0,0,.54,9.29V21.36a6.06,6.06,0,0,0,.27,1.81v0l.34.83,2.65,6.68a2.29,2.29,0,0,0,1.26,1.47,1.44,1.44,0,0,0,.46.08,1.93,1.93,0,0,0,1-.29l4.37-4.4h16.2a6.23,6.23,0,0,0,6.22-6.22V9.29A5.85,5.85,0,0,0,33.06,7.71Zm-.89,13.65a5.13,5.13,0,0,1-5.12,5.12H10.41l-1.09,1.1L5.86,31.06a.58.58,0,0,1-.43.09c-.11,0-.34-.2-.6-.84L3.34,26.56,2.18,23.63a4.53,4.53,0,0,1-.33-.82,5,5,0,0,1-.21-1.45V9.29A5.12,5.12,0,0,1,6.76,4.18H27.05A5.12,5.12,0,0,1,32,8,4.35,4.35,0,0,1,32.16,9a1.48,1.48,0,0,1,0,.21Z" fill="#303c42"/><path d="M28.31,7.45a.55.55,0,0,1-.55.55h-22a.55.55,0,0,1-.55-.55.54.54,0,0,1,.55-.55h22A.54.54,0,0,1,28.31,7.45Z" fill="#303c42"/><path d="M21.56,10.57a.55.55,0,0,1-.55.55H5.79a.54.54,0,0,1-.55-.55A.55.55,0,0,1,5.79,10H21A.55.55,0,0,1,21.56,10.57Z" fill="#303c42"/><path d="M28.32,16.82a.55.55,0,0,1-.55.55h-22a.54.54,0,0,1-.55-.55.55.55,0,0,1,.55-.55h22A.55.55,0,0,1,28.32,16.82Z" fill="#303c42"/><path d="M28.32,23.07a.55.55,0,0,1-.55.55h-22a.55.55,0,0,1-.55-.55.55.55,0,0,1,.55-.55h22A.55.55,0,0,1,28.32,23.07Z" fill="#303c42"/><path d="M21.56,20a.55.55,0,0,1-.55.55H5.79A.55.55,0,0,1,5.24,20a.54.54,0,0,1,.55-.55H21A.55.55,0,0,1,21.56,20Z" fill="#303c42"/><path d="M18.6,13.72a.55.55,0,0,1-.55.55H5.79a.55.55,0,0,1,0-1.1H18.16A.56.56,0,0,1,18.6,13.72Z" fill="#303c42"/><path d="M29,13.68a.55.55,0,0,1-.55.55h-8.3a.55.55,0,0,1-.55-.55.54.54,0,0,1,.55-.55h8.3a.53.53,0,0,1,.54.48A.17.17,0,0,1,29,13.68Z" fill="#303c42"/></svg>