<svg id="Layer_1" data-name="Layer 1" xmlns="http://www.w3.org/2000/svg" viewBox="0 0 33.63 33.63"><g id="layer1"><path id="rect9365-3" d="M5.16,1.82a.52.52,0,0,0-.38.31L1.44,11l-.06.1v0a.42.42,0,0,0-.06.19v.5a2,2,0,0,0,2,2,1.94,1.94,0,0,0,1-.29V27.82H1.82a.5.5,0,0,0-.5.5v3a.48.48,0,0,0,.37.46l0,0H31.94a.51.51,0,0,0,.38-.5v-3a.5.5,0,0,0-.5-.5h-2.5V13.53a1.89,1.89,0,0,0,1,.29,1.81,1.81,0,0,0,.4,0,2,2,0,0,0,1.44-1.18,1.68,1.68,0,0,0,.12-.38,1.81,1.81,0,0,0,0-.4v-.69l0-.06v0a.24.24,0,0,0-.06-.09l0,0L28.88,2.13l0,0a.51.51,0,0,0-.44-.34H5.25A.14.14,0,0,0,5.16,1.82Zm.44,1H28.07l3.25,8.59v.41a1,1,0,0,1-1,1,1,1,0,0,1-.91-.6,1.06,1.06,0,0,1-.09-.4v-.16l0,0a.06.06,0,0,0,0-.06l0,0a.54.54,0,0,0-.15-.15h0l-.07,0a.5.5,0,0,0-.47.06l0,0,0,0-.06.06,0,.07,0,0v.09s0,0,0,.06v0a1,1,0,0,1-.6.93,1.05,1.05,0,0,1-.4.07,1,1,0,0,1-.91-.6,1.06,1.06,0,0,1-.09-.4v-.16l0,0a.06.06,0,0,0,0-.06l0,0a.54.54,0,0,0-.15-.15h0l-.07,0a.29.29,0,0,0-.18,0,.5.5,0,0,0-.29.09l0,0,0,0-.06.06,0,.07,0,0v.09s0,0,0,.06v0a1,1,0,0,1-.6.93,1.05,1.05,0,0,1-.4.07,1,1,0,0,1-.91-.6,1.06,1.06,0,0,1-.09-.4v-.16l0,0a.06.06,0,0,0,0-.06l0,0a.54.54,0,0,0-.15-.15h0l-.07,0a.29.29,0,0,0-.18,0,.5.5,0,0,0-.29.09l0,0,0,0-.06.06,0,.07,0,0v.09s0,0,0,.06v0a1,1,0,0,1-.6.93,1.05,1.05,0,0,1-.4.07,1,1,0,0,1-.91-.6,1.06,1.06,0,0,1-.09-.4v-.16l0,0a.06.06,0,0,0,0-.06l0,0a.54.54,0,0,0-.15-.15h0l-.07,0a.29.29,0,0,0-.18,0,.5.5,0,0,0-.29.09l0,0,0,0-.06.06,0,.07,0,0v.09s0,0,0,.06v0a1,1,0,0,1-.6.93l-.09,0a1.1,1.1,0,0,1-.31,0,1,1,0,0,1-.91-.6,1.06,1.06,0,0,1-.09-.4v-.16l0,0a.06.06,0,0,0,0-.06l0,0a.54.54,0,0,0-.15-.15h0l-.07,0a.29.29,0,0,0-.18,0,.5.5,0,0,0-.29.09l0,0,0,0-.06.06,0,.07,0,0v.09s0,0,0,.06v0a1,1,0,0,1-.6.93,1.05,1.05,0,0,1-.4.07,1,1,0,0,1-.91-.6,1.06,1.06,0,0,1-.09-.4v-.16l0,0a.06.06,0,0,0,0-.06l0,0a.54.54,0,0,0-.15-.15h0l-.07,0a.29.29,0,0,0-.18,0,.5.5,0,0,0-.29.09l0,0,0,0-.06.06,0,.07,0,0v.09s0,0,0,.06v0a1,1,0,0,1-.6.93,1.05,1.05,0,0,1-.4.07,1,1,0,0,1-.91-.6,1.06,1.06,0,0,1-.09-.4v-.16l0,0a.06.06,0,0,0,0-.06l0,0a.54.54,0,0,0-.15-.15h0l-.07,0a.29.29,0,0,0-.18,0,.5.5,0,0,0-.29.09l0,0,0,0-.06.06,0,.07,0,0v.09s0,0,0,.06v0a1,1,0,0,1-.6.93,1.05,1.05,0,0,1-.4.07,1,1,0,0,1-.91-.6,1.06,1.06,0,0,1-.09-.4v-.16l0,0a.06.06,0,0,0,0-.06l0,0a.54.54,0,0,0-.15-.15h0l-.07,0a.29.29,0,0,0-.18,0,.5.5,0,0,0-.29.09l0,0,0,0-.06.06,0,.07,0,0v.09s0,0,0,.06v0a1,1,0,0,1-.6.93,1.05,1.05,0,0,1-.4.07,1,1,0,0,1-.91-.6,1.06,1.06,0,0,1-.09-.4v-.1a.6.6,0,0,0-.13-.28h0v0h0A.51.51,0,0,0,5,11.32H4.91l-.09,0a.53.53,0,0,0-.41.22v0l0,0,0,.06v.06s0,0,0,.06v.07a1,1,0,0,1-.6.93,1.05,1.05,0,0,1-.4.07,1,1,0,0,1-.91-.6,1.06,1.06,0,0,1-.09-.4v-.41ZM7.82,13.13l.09.09a2,2,0,0,0,1.41.6,2,2,0,0,0,1.5-.69l.09.09a2,2,0,0,0,1.41.6,2,2,0,0,0,1.5-.69l.09.09a2,2,0,0,0,1.41.6,2,2,0,0,0,1.5-.69l.09.09a2,2,0,0,0,1.41.6h0v14h-13V13.53a1.89,1.89,0,0,0,1,.29A2,2,0,0,0,7.82,13.13Zm12,0,.09.09a2,2,0,0,0,1.41.6,2,2,0,0,0,1.5-.69l.09.09a2,2,0,0,0,1.41.6,2,2,0,0,0,1.5-.69l.09.09a2,2,0,0,0,1.41.6,1.94,1.94,0,0,0,1-.29V28.82h-1v-10l-.5,0h-6a.5.5,0,0,0-.5.5v9.5h-1V13.53A2.22,2.22,0,0,0,19.82,13.13ZM8.88,15.6l-2,4,.9.43,2-4Zm2,2-2.5,5,.9.43,2.5-5Zm10.44,2.22h5v9h-5Zm1,3v2h1v-2Zm-20,6h16v2h-16v-2Zm27,0h2v2h-2v-2Zm-10,1h9v1h-9Z" fill="#cbcbca"/></g></svg>