<svg id="Layer_1" data-name="Layer 1" xmlns="http://www.w3.org/2000/svg" xmlns:xlink="http://www.w3.org/1999/xlink" viewBox="0 0 145 145"><defs><linearGradient id="linear-gradient" x1="3.99" y1="72.5" x2="141.01" y2="72.5" gradientTransform="translate(0 145) rotate(-90)" gradientUnits="userSpaceOnUse"><stop offset="0" stop-color="#4db8c4"/><stop offset="1" stop-color="#5cc1a3"/></linearGradient><clipPath id="clip-path"><rect x="3.99" y="3.99" width="137.02" height="137.02" rx="14.52" transform="translate(145) rotate(90)" fill="none"/></clipPath></defs><rect x="3.99" y="3.99" width="137.02" height="137.02" rx="14.52" transform="translate(145) rotate(90)" fill="url(#linear-gradient)"/><g clip-path="url(#clip-path)"><path d="M126.12,1.28C48.17,2.16,27.07,44.28,21.4,69c-.26,1.14-.49,2.25-.69,3.31-.44,2.31-.73,4.42-.94,6.26-.29,2.67-.39,4.78-.42,6.17,0,1.21,0,1.88,0,1.88l.46-1.08c.49-1.09,1-2.15,1.53-3.17s1-1.89,1.54-2.79h0c.71-1.21,1.46-2.37,2.23-3.47.45-.63.9-1.25,1.36-1.85.11-.13.22-.27.32-.41.79-1,1.61-2,2.45-2.86.08-.09.17-.18.25-.28.5-.53,1-1,1.53-1.55l.73-.7c.68-.63,1.37-1.23,2.07-1.82.51-.43,1-.84,1.57-1.25h0l.26-.2Q37.24,64,38.87,63l.64-.4c.64-.4,1.28-.78,1.94-1.14h0c1-.59,2.09-1.14,3.16-1.66h0c1.07-.51,2.14-1,3.23-1.44h0c.52-.22,1-.43,1.55-.63h0c.61-.24,1.23-.47,1.85-.69,1-.35,2-.69,3-1h0c1.5-.47,3-.9,4.54-1.29h0l1.93-.49c2.06-.49,4.14-.93,6.22-1.33s4.38-.8,6.57-1.16l3-.47c3.59-.55,7.14-1.07,10.6-1.63h0a102.76,102.76,0,0,0,18.45-4.31c-8.46-1.37-21.24-8.2-21-25.12C85.3,35.73,110.33,48,120.84,34.75h0C126,27.79,128.23,17.38,126.12,1.28ZM103.53,13.75a3,3,0,1,1-3,3A3,3,0,0,1,103.53,13.75Zm7.21,4.76a2.87,2.87,0,0,1,0,.31c0,.1,0,.2-.08.31a6.72,6.72,0,0,1-.43,1.16,7.39,7.39,0,0,1-1.45,2.06,6,6,0,0,1-1,.82,6.29,6.29,0,0,1-1.15.6,9.44,9.44,0,0,1-1.25.38,11.24,11.24,0,0,1-1.29.23,7.06,7.06,0,0,1-1.3,0,5.69,5.69,0,0,1-1.3-.21,6.07,6.07,0,0,1-1.22-.48A5.54,5.54,0,0,1,99.17,23a6.15,6.15,0,0,1-1.49-2,9.41,9.41,0,0,1-.43-1.11A9.06,9.06,0,0,1,97,18.76l.25-.07a7.77,7.77,0,0,0,.5,1,7.22,7.22,0,0,0,.61.91A5.43,5.43,0,0,0,99.92,22a3.84,3.84,0,0,0,.91.39,4.44,4.44,0,0,0,1,.19,5.13,5.13,0,0,0,1,0,6.1,6.1,0,0,0,1-.17,5.53,5.53,0,0,0,.91-.35,6.59,6.59,0,0,0,.85-.51l.8-.55.82-.55c.56-.37,1.11-.78,1.68-1.22l.44-.34.44-.35.46-.36c.16-.12.31-.25.49-.37l.22.12A3.18,3.18,0,0,1,110.74,18.51Z" fill="#fff"/><path d="M88.29,74.07c26.38.78,29.68-20,30.8-31.16-6.54,9.53-24.61,10.83-43.6,13.77a3.38,3.38,0,0,0-2.61,2v0a13.17,13.17,0,0,0-.72,2.39,14.6,14.6,0,0,0-.28,2.48c0,.42,0,.83,0,1.25,0,.11,0,.21,0,.32l0,.31c0,.21,0,.42.06.62A18.28,18.28,0,0,0,73.22,71a21.64,21.64,0,0,0,1.09,2.28l.32.54c.11.18.22.36.34.54l.35.53.37.51-.3.23a11.32,11.32,0,0,1-2.21-1.7,14.47,14.47,0,0,1-1.82-2.15,15.36,15.36,0,0,1-1.42-2.5c-.1-.22-.2-.45-.29-.67l-.26-.69-.22-.7c-.07-.24-.13-.48-.2-.72a16.1,16.1,0,0,1-.31-6c.06-.4.14-.8.23-1.2A1,1,0,0,0,67.73,58c-1.71.32-3.42.67-5.11,1a.83.83,0,0,0-.6.55h0c0,.09-.05.18-.08.28l-.07.28-.06.28a2.93,2.93,0,0,0-.05.29A12,12,0,0,0,61.58,63l0,.58c0,.2,0,.39,0,.59,0,.38.09.77.16,1.16a17.89,17.89,0,0,0,1.44,4.48,19.08,19.08,0,0,0,1.1,2.1c.2.34.41.67.63,1l.33.49.35.48-.3.23a11.38,11.38,0,0,1-2.12-1.52,14.4,14.4,0,0,1-1.82-1.92,16,16,0,0,1-1.49-2.25l-.16-.3-.15-.31-.15-.31-.14-.32-.13-.32-.13-.32L59,66.26l-.11-.34a14.22,14.22,0,0,1-.61-2.8l0-.37,0-.37c0-.25,0-.5,0-.75v-.38c0-.12,0-.25,0-.38s0-.51.06-.76v0q-3.32.86-6.5,1.93c0,.05,0,.09,0,.14a12,12,0,0,0-.17,2.32c0,.19,0,.39,0,.58s0,.39,0,.59c0,.39.09.77.16,1.16a18.3,18.3,0,0,0,1.44,4.48,23.27,23.27,0,0,0,1.1,2.1c.2.34.42.68.64,1,.11.16.21.33.33.49l.34.48-.29.23a11.79,11.79,0,0,1-2.13-1.52,15.07,15.07,0,0,1-1.82-1.92,14.58,14.58,0,0,1-1.48-2.25l-.16-.3a3,3,0,0,1-.15-.31L49.47,69c0-.1-.1-.21-.14-.31l-.14-.33L49.07,68c0-.11-.09-.22-.12-.33l-.11-.33a14.48,14.48,0,0,1-.61-2.81l0-.37a2.31,2.31,0,0,1,0-.37c0-.15,0-.31,0-.47-1.52.61-3,1.26-4.44,2l-.77.39-.18.31h0c0,.18,0,.37,0,.55s0,.39,0,.58c0,.39.09.78.16,1.17a18.3,18.3,0,0,0,1.44,4.48,21,21,0,0,0,1.1,2.1c.2.34.42.67.63,1l.34.5.34.48-.29.23a11.13,11.13,0,0,1-2.13-1.52,14.4,14.4,0,0,1-1.82-1.92,15.61,15.61,0,0,1-1.48-2.25l-.16-.3c-.06-.1-.11-.21-.16-.31l-.14-.31a.54.54,0,0,1,0-.11l-.09-.21-.12-.28,0,0-.12-.32c0-.11-.09-.22-.12-.33L40,68.87a12.22,12.22,0,0,1-.37-1.35c-.48.29-.94.58-1.41.89s-1.09.73-1.62,1.11-.88.64-1.31,1v.07a18,18,0,0,0,.58,2.3c.18.55.39,1.1.62,1.63.07.19.16.37.24.55a23.27,23.27,0,0,0,1.1,2.1c.2.34.42.68.64,1l.33.49.34.49-.29.22a11.79,11.79,0,0,1-2.13-1.52,15.68,15.68,0,0,1-1.82-1.91,16.37,16.37,0,0,1-1.37-2.06c0-.06-.07-.13-.11-.2l-.16-.3a3,3,0,0,1-.15-.31L33,72.75a2.14,2.14,0,0,1-.1-.22c-.4.36-.78.72-1.17,1.1-.62.61-1.23,1.25-1.82,1.92a19.78,19.78,0,0,0,1,2.65A23.27,23.27,0,0,0,32,80.3c.2.34.42.68.64,1l.33.49.35.48-.3.23A11.79,11.79,0,0,1,30.91,81a15.07,15.07,0,0,1-1.82-1.92,16.41,16.41,0,0,1-1-1.35c-.69.91-1.35,1.86-2,2.86.18.48.38,1,.59,1.42a21,21,0,0,0,1.11,2.1c.2.34.41.67.63,1l.33.5.35.48-.3.23a12.87,12.87,0,0,1-2.13-1.52,14.33,14.33,0,0,1-1.81-1.92l-.05-.06a38.15,38.15,0,0,0-1.86,4h0c.22.43.46.85.7,1.27s.42.67.64,1l.33.49L25,90l-.3.23a12.87,12.87,0,0,1-2.13-1.52l-.24-.23c-.42,1.19-.8,2.42-1.14,3.7l.19.32c.2.34.42.68.63,1,.12.16.22.33.34.49l.34.49-.29.22a10.48,10.48,0,0,1-1.57-1,63.81,63.81,0,0,0-1.51,14.36C49.14,68.49,92.49,93.66,110.69,77,105.14,71.13,100.49,76.81,88.29,74.07ZM93.76,57.9A3.08,3.08,0,1,1,91,60.65,3.08,3.08,0,0,1,93.76,57.9Z" fill="#fff"/><path d="M50.58,130.34H48.19l-1.16,0c-.77,0-1.54-.1-2.31-.17s-1.53-.16-2.29-.28l-.58-.09-.57-.1-.56-.12-.29-.07-.28-.06-.28-.07-.28-.08-.56-.16-.28-.08-.27-.09-.48-.18a.09.09,0,0,0-.1.05h0a.08.08,0,0,0,0,.11l.45.24.27.13.26.13c.18.09.36.16.55.24l.27.11.28.11c.73.29,1.49.52,2.25.74.38.11.77.2,1.15.29l1.17.25c.38.08.77.14,1.16.21l1.18.17c.78.11,1.56.23,2.35.32l.59.06h0a.18.18,0,0,1,.16.24,14.62,14.62,0,0,1-3.19,4.91.11.11,0,0,1-.07,0l-1.09-.16-1.73-.24A26.76,26.76,0,0,1,40.5,136a25.64,25.64,0,0,1-3.29-1.15c-.53-.23-1.05-.48-1.56-.76a17.44,17.44,0,0,1-1.49-.91,14.31,14.31,0,0,1-2.62-2.3,16.18,16.18,0,0,1-1.07-1.4,15.36,15.36,0,0,1-.85-1.48.09.09,0,0,0-.1,0h-.05a.07.07,0,0,0,0,.1,13.33,13.33,0,0,0,.67,1.61,13.94,13.94,0,0,0,.95,1.57l.27.37c.09.13.19.25.29.37s.2.23.3.35.2.23.31.34A13.51,13.51,0,0,0,33.56,134a18.15,18.15,0,0,0,3.07,2.07c.55.29,1.11.56,1.67.81s1.15.46,1.73.67,1.17.4,1.76.58,1.18.35,1.78.5h0a.52.52,0,0,1,.16.94,22.44,22.44,0,0,1-5.65,2.6,1.79,1.79,0,0,1-1.12,0h0c-.72-.26-1.43-.53-2.13-.83l-.52-.23-.26-.12-.26-.13-.51-.25-.25-.14-.25-.14a14.12,14.12,0,0,1-1.89-1.26,15.61,15.61,0,0,1-3.13-3.31,17.76,17.76,0,0,1-1.17-2l-.25-.52c-.08-.18-.15-.36-.22-.54s-.08-.18-.11-.27l-.1-.27-.11-.27-.05-.14,0-.14-.18-.55c0-.1-.05-.19-.08-.28l-.08-.29-.07-.28a2.46,2.46,0,0,1-.07-.29l-.13-.57c-.15-.77-.27-1.55-.35-2.33l0-.3c0-.1,0-.2,0-.29l0-.6,0-.29c0-.1,0-.2,0-.3v-.6c0-.2,0-.4,0-.59v-.6l0-.6,0-.52a.09.09,0,0,0-.07-.09h-.07a.07.07,0,0,0-.08.07c-.06.37-.12.74-.16,1.11l-.07.6c0,.2,0,.41-.06.61l0,.6c0,.1,0,.2,0,.3v.91a1.6,1.6,0,0,0,0,.31v.3a22,22,0,0,0,.15,2.44l.09.61c0,.1,0,.2,0,.3l.06.31,0,.3.06.3.14.6,0,.15,0,.15.09.3.08.3c0,.1.07.2.1.29s.13.4.2.59l.22.58a16.4,16.4,0,0,0,4.33,6.1A21.27,21.27,0,0,0,31.84,142a.83.83,0,0,1-.39,1.5,52.1,52.1,0,0,1-8.73.09,2.33,2.33,0,0,1-1.8-1.06c-8.72-13.48,4.82-37.15,12.73-44a.08.08,0,0,1,.13.08c-1.17,7-9.21,26.84,16.56,26.88a.08.08,0,0,1,.08.05A8.45,8.45,0,0,1,50.58,130.34Z" fill="#fff"/></g></svg>