<svg id="Layer_1" data-name="Layer 1" xmlns="http://www.w3.org/2000/svg" xmlns:xlink="http://www.w3.org/1999/xlink" viewBox="0 0 182.84 70.07"><defs><linearGradient id="linear-gradient" x1="1.67" y1="35.02" x2="103.67" y2="35.02" gradientUnits="userSpaceOnUse"><stop offset="0" stop-color="#4db8c4"/><stop offset="1" stop-color="#5cc1a3"/></linearGradient><linearGradient id="linear-gradient-2" x1="110.42" y1="35.05" x2="178.61" y2="35.05" gradientTransform="translate(109.46 179.57) rotate(-90)" gradientUnits="userSpaceOnUse"><stop offset="0" stop-color="#5cc1a3"/><stop offset="1" stop-color="#4db8c4"/></linearGradient></defs><path d="M9.68,30.09v4.76H12a3.87,3.87,0,0,1,3.87,3.87v1.66H9.68V57.53h0A5.53,5.53,0,0,1,4.15,52V40.38h0a2.47,2.47,0,0,1-2.48-2.47V34.85H4.15V30.09a6.87,6.87,0,0,1,1-3.57,7.33,7.33,0,0,1,2.6-2.59,7,7,0,0,1,3.6-1,7.38,7.38,0,0,1,2.84.59h0a2.2,2.2,0,0,1,.68,3.59l-2.18,2.12a1.41,1.41,0,0,0-.58-.58,1.74,1.74,0,0,0-.76-.19,1.59,1.59,0,0,0-1.14.47A1.47,1.47,0,0,0,9.68,30.09Zm14.38,1.84A2.86,2.86,0,0,1,22,31.12a2.86,2.86,0,0,1,0-4.05,2.83,2.83,0,0,1,2-.81,2.79,2.79,0,0,1,2,.81,2.83,2.83,0,0,1-2,4.86Zm-2.81,2.92h0a5.54,5.54,0,0,1,5.53,5.53V57.53h0A5.54,5.54,0,0,1,21.25,52ZM40.37,57.93A12,12,0,0,1,37,57.22a9.65,9.65,0,0,1-2.91-1.65l0,0A2.11,2.11,0,0,1,34.6,52l2.17-.92a4,4,0,0,0,.88,1,5.6,5.6,0,0,0,1.46.85,4.94,4.94,0,0,0,1.87.34A5.58,5.58,0,0,0,42.63,53a2.91,2.91,0,0,0,1.27-.74A1.78,1.78,0,0,0,44.39,51a1.59,1.59,0,0,0-.58-1.3,3.85,3.85,0,0,0-1.45-.7l-1.69-.45a16.29,16.29,0,0,1-4-1.33,8.45,8.45,0,0,1-3-2.35,5.54,5.54,0,0,1-1.12-3.48,6.43,6.43,0,0,1,1.19-3.88A7.86,7.86,0,0,1,36.87,35,9.77,9.77,0,0,1,41,34.08a10.91,10.91,0,0,1,5,1.12l0,0a3,3,0,0,1,.09,5.16l-.94.56a4,4,0,0,0-.89-1,5.23,5.23,0,0,0-1.5-.85,4,4,0,0,0-1.37-.27,5.77,5.77,0,0,0-1.8.18,2.81,2.81,0,0,0-1.35.77,2,2,0,0,0-.51,1.45,1.4,1.4,0,0,0,.68,1.28,5.52,5.52,0,0,0,1.65.65c.64.15,1.25.32,1.84.5a23,23,0,0,1,3.76,1.61,8.72,8.72,0,0,1,2.82,2.33,5.08,5.08,0,0,1,1,3.31,6,6,0,0,1-1.31,3.85,8.37,8.37,0,0,1-3.4,2.5A9.42,9.42,0,0,1,40.37,57.93Zm13.91-8.79V34.85h0a5.54,5.54,0,0,1,5.53,5.53v7.3a4.63,4.63,0,0,0,.66,2.44,4.84,4.84,0,0,0,1.76,1.75,4.65,4.65,0,0,0,2.41.64,4.72,4.72,0,0,0,2.45-.64,5,5,0,0,0,1.75-1.75,4.71,4.71,0,0,0,.65-2.44V34.85h0A5.54,5.54,0,0,1,75,40.38l0,17.15H71.58a2.1,2.1,0,0,1-2.09-2.07h0A8.63,8.63,0,0,1,66.7,57.4a8.31,8.31,0,0,1-3.44.71,8.7,8.7,0,0,1-4.52-1.21,9.34,9.34,0,0,1-3.25-3.24A8.62,8.62,0,0,1,54.28,49.14ZM101,34.85a2.87,2.87,0,0,0-2.87,2.88,8.67,8.67,0,0,0-2.72-2.5,7.39,7.39,0,0,0-3.81-1,11.57,11.57,0,0,0-4.63.93,12.1,12.1,0,0,0-6.37,6.37,12.05,12.05,0,0,0,.68,10.66,12.11,12.11,0,0,0,4.32,4.33,11.55,11.55,0,0,0,6,1.61,7.29,7.29,0,0,0,3.81-1,8.67,8.67,0,0,0,2.72-2.5V68.86a5.53,5.53,0,0,0,5.53-5.53V34.85ZM96.92,49.51a6.12,6.12,0,0,1-2.13,2.4,5.44,5.44,0,0,1-3.11.9,6.05,6.05,0,0,1-3.19-.88,6.67,6.67,0,0,1-3.14-5.74,6.5,6.5,0,0,1,.85-3.31,6.67,6.67,0,0,1,2.29-2.4,6,6,0,0,1,3.19-.89,5.55,5.55,0,0,1,3.1.89,6.29,6.29,0,0,1,2.14,2.4,7.11,7.11,0,0,1,.76,3.31A7.21,7.21,0,0,1,96.92,49.51Zm3.85-23.68H99.15c0,1.16,0,2.27,0,3.38,0,.46-.36.7-.7.46a.83.83,0,0,1-.23-.6c0-1.08,0-2.16,0-3.29-.38,0-.67,0-1,0-.56-.08-.75.14-.72.7,0,.87,0,1.76,0,2.63,0,.32-.06.6-.47.62s-.53-.21-.53-.59c0-1.1,0-2.21,0-3.33H93.83v.72c0,.85,0,1.71,0,2.56,0,.69-.46.63-.92.65s-.64-.15-.61-.62a8.46,8.46,0,0,0,0-1.67,2.3,2.3,0,0,0-2.58-2.11,2.33,2.33,0,0,0-2.2,2.38,13.26,13.26,0,0,0,0,1.41c0,.48-.15.61-.62.61H51.94c-.52,0-.67-.19-.66-.67,0-1.13,0-2.26,0-3.39V23.62h-1.6c0,2.06,0,4.06,0,6.06,0,.69.79,1.24,1.54,1.31a7.48,7.48,0,0,0,.82,0q17.13,0,34.22,0a13.53,13.53,0,0,1,3.41.4,4.54,4.54,0,0,0,1.67-.11c.41-.05.8-.23,1.21-.27A14.35,14.35,0,0,1,94,31h1.17L97,30.91a4.28,4.28,0,0,1,.62,0,13,13,0,0,0,1.65.09,1.5,1.5,0,0,0,1.5-1.27C100.83,28.43,100.77,27.14,100.77,25.83Zm-10.11,3v.46c0,1-.37,1.22-1.27.71a.53.53,0,0,1-.21-.35,12.74,12.74,0,0,1,0-2.05,1.29,1.29,0,0,1,.66-.88c.49-.13.66.4.75.78a9.8,9.8,0,0,1,.09,1.33ZM46.78,24.47c0,1.52,0,3,0,4.55,0,.52-.16.73-.7.72-.9,0-1.79,0-2.69,0-.54,0-.72-.18-.7-.71,0-.69,0-1.39,0-2.06H41v2.14A1.78,1.78,0,0,0,42.9,31c1.2,0,2.39,0,3.59,0a1.81,1.81,0,0,0,2-2c0-1.58,0-3.16,0-4.73,0-.21,0-.42,0-.65H46.82C46.8,23.93,46.78,24.2,46.78,24.47Zm55.3,6.45h1.59V23.63h-1.59ZM45.46,26.56c-.47.07-.82-.06-.86-.59s.33-.58.76-.63c.16,0,.3-.3.45-.47-.84-.17-1.58-.25-2,.44a3.14,3.14,0,0,0-.12,1.21h.11l-.27.94,2.31-.18v-.71A2.66,2.66,0,0,0,45.46,26.56ZM33.79,30.24a.92.92,0,0,0,1-1,1,1,0,0,0-1-1.07h0a1,1,0,0,0-1.05,1.05.93.93,0,0,0,.27.7,1,1,0,0,0,.75.31Zm4.21,0a1,1,0,0,0,1-1,1,1,0,0,0-.28-.73,1,1,0,0,0-.74-.3,1,1,0,0,0-1.05,1A1,1,0,0,0,38,30.25ZM80.7,13.8a6.12,6.12,0,0,0-5.92-3.94,11.18,11.18,0,0,0-2.86.42l.14.32c.21.49.43,1,.6,1.51s.31.51.57.51l.32,0a5.11,5.11,0,0,1,1-.1,3,3,0,0,1,3,2.25,23.51,23.51,0,0,1,.82,2.8l.28,1.1a.94.94,0,0,1,0,.41.74.74,0,0,0,0,.12l0,.28H69.23v-.31c0-.44,0-.89,0-1.32,0-1,0-1.92,0-2.86a5.12,5.12,0,0,0-2.28-4.32,5,5,0,0,0-2.82-.89,5.42,5.42,0,0,0-2.42.59A4.77,4.77,0,0,0,59,14.71c-.05.76,0,1.52,0,2.28,0,.53,0,1.08,0,1.62,0,.25-.21.83-.59.86a10.07,10.07,0,0,1-1,0H55.94V18.39a13.18,13.18,0,0,0-.68-4.49A6.22,6.22,0,0,0,49,9.76h-.11a.75.75,0,0,0-.24,0c-.3.67-.57,1.36-.85,2.08a2.15,2.15,0,0,0-.13.32l.4.06,1.19.15a2.94,2.94,0,0,1,2.78,2.28,21.73,21.73,0,0,1,.4,2.65c0,.38.09.77.14,1.15a.9.9,0,0,1-.16.74,1,1,0,0,1-.76.27H46.79a.53.53,0,0,0-.26,0,.6.6,0,0,0,0,.3,12.54,12.54,0,0,1,0,1.84c0,.26,0,.34,0,.37s.11.07.42.07h0l7.51,0h5.24a3.66,3.66,0,0,1,1,.09c.45.11.9.24,1.35.36.65.18,1.32.36,2,.51a6.17,6.17,0,0,0,1.29.15,4.2,4.2,0,0,0,2.35-.69A2.52,2.52,0,0,1,69,22.1H80.28A4,4,0,0,0,81.39,22a1.12,1.12,0,0,0,.93-1.22A23.44,23.44,0,0,0,80.7,13.8ZM65.88,17.55V18c0,.53,0,1.08,0,1.62,0,.24,0,1-.78,1a1.69,1.69,0,0,1-.41-.06A16.21,16.21,0,0,1,62.93,20a.94.94,0,0,1-.6-.75c0-1.59,0-3.24.06-4.86a2.06,2.06,0,0,1,1.66-2h0c.74,0,1.52.86,1.66,1.85a18.92,18.92,0,0,1,.17,2.12c0,.3,0,.59,0,.89l0,.31ZM40.75,24.87a5.38,5.38,0,0,0,2.52-3.21,4.88,4.88,0,0,0-2.16-5.34,23.69,23.69,0,0,0-2.06-1.19c-.34-.17-.69-.36-1-.56l-.41-.22.36-.29a3.11,3.11,0,0,0,.28-.23,5.59,5.59,0,0,1,.71-.55,3.56,3.56,0,0,1,1.94-.54,5.88,5.88,0,0,1,1.06.11h.14a.63.63,0,0,0,.23,0c.33-.62.61-1.25.92-1.92.06-.12.11-.25.17-.38a7.78,7.78,0,0,0-2.49-.36,9.58,9.58,0,0,0-2.38.29,5.62,5.62,0,0,0-4.41,5.33v.12a1.62,1.62,0,0,0,.06.62,2,2,0,0,0,.66.19,8.82,8.82,0,0,1,3.91,1.52A2.86,2.86,0,0,1,40,20.86a2.89,2.89,0,0,1-1.88,2.22,4.89,4.89,0,0,1-2,.43,3.89,3.89,0,0,1-2.42-.84,4.2,4.2,0,0,1-1.54-4.11c0-.27.07-.55.12-.84l0-.12-.56-.05c-.92-.08-1.8-.15-2.67-.2a.43.43,0,0,0-.12.11,6.7,6.7,0,0,0,1.87,6.69,8,8,0,0,0,5.45,1.92A8.2,8.2,0,0,0,40.75,24.87ZM94,22a3.55,3.55,0,0,0,3.3-3.34c0-2.72,0-5.47,0-8.14V6.29a.38.38,0,0,0,0-.17.31.31,0,0,0-.17,0h0l-1.47,0c-.48,0-.91,0-1.31,0h-.09c-.18,0-.23,0-.24,0s0,.07,0,.32c0,2.19,0,4.41,0,6.56v2.35c0,.28,0,.55,0,.83,0,.7,0,1.42,0,2.13,0,.36-.33,1.05-.76,1.12a7.15,7.15,0,0,1-1,.06H90.59V15.27c0-2.86,0-5.83,0-8.75,0-.27,0-.36-.07-.39a.46.46,0,0,0-.26,0h-.11l-.76,0-.8,0h-.83a2.34,2.34,0,0,0-.52,0,3.34,3.34,0,0,0,0,.51V19.51H86l-.53,0h-.14a.59.59,0,0,0,0,.17c0,.27,0,.54,0,.82,0,.46,0,.93,0,1.39a.63.63,0,0,0,.15.18h3.66C90.5,22.08,92.24,22.07,94,22Zm9.55-.07s.06-.09.06-.34c0-1.86,0-3.75,0-5.58,0-.66,0-1.32,0-2v-2c0-1.85,0-3.77,0-5.66,0-.23,0-.28,0-.28s-.07,0-.19,0h-1.81a2.92,2.92,0,0,0-1.23.12,2.9,2.9,0,0,0-.11,1.21v3.1c0,3.6,0,7.33,0,11,0,.28,0,.37.07.4a.5.5,0,0,0,.27,0h.09c.41,0,.84,0,1.25,0s.9,0,1.34,0h.08C103.48,22,103.53,21.94,103.54,21.93ZM87.64,1.75a1.31,1.31,0,0,0,0,1.85,1.52,1.52,0,0,1-.2.11c-.37,0-.71,0-.64.61s.34.61.78.57l2.8-.24c.34,0,.46-.19.4-.5s-.09-.44-.14-.69c-.36,0-.72.18-.93.06a6.34,6.34,0,0,1-1-.9c.28-.1.58-.32.85-.29.78.1.81-.4.86-1A2.65,2.65,0,0,0,87.64,1.75Z" fill="url(#linear-gradient)"/><rect x="110.42" y="0.96" width="68.18" height="68.18" rx="8.04" transform="translate(179.57 -109.46) rotate(90)" fill="url(#linear-gradient-2)"/><path d="M169,2.56c-35.57.4-45.2,19.62-47.78,30.9-.12.53-.22,1-.32,1.52-.19,1.05-.33,2-.42,2.85-.14,1.22-.18,2.18-.19,2.82s0,.85,0,.85l.21-.49c.22-.5.45-1,.7-1.44s.46-.87.7-1.28h0c.32-.55.66-1.08,1-1.58.2-.29.41-.57.62-.84l.14-.19c.36-.46.74-.89,1.12-1.31l.12-.12c.22-.25.46-.48.69-.71l.34-.32c.31-.29.62-.56.94-.83s.47-.39.72-.57h0l.12-.09c.47-.36,1-.7,1.46-1l.29-.18c.29-.18.59-.35.89-.52h0q.71-.41,1.44-.75h0c.48-.23,1-.45,1.47-.66h0l.71-.28h0l.85-.32,1.37-.46h0c.69-.21,1.38-.41,2.08-.59h0l.88-.22c.94-.23,1.89-.43,2.84-.61s2-.37,3-.53l1.37-.21c1.64-.26,3.26-.49,4.84-.75h0a46.75,46.75,0,0,0,8.41-2c-3.86-.63-9.69-3.74-9.59-11.47.34,7.09,11.76,12.67,16.55,6.64h0C168.91,14.65,169.94,9.9,169,2.56Zm-10.3,5.69a1.38,1.38,0,1,1-1.38,1.37A1.37,1.37,0,0,1,158.68,8.25ZM162,10.42l0,.14,0,.14a3.39,3.39,0,0,1-.2.53,3.46,3.46,0,0,1-.66.94,2.82,2.82,0,0,1-.46.38,4.25,4.25,0,0,1-.52.27,4.11,4.11,0,0,1-.57.17,5.59,5.59,0,0,1-.59.11,3.85,3.85,0,0,1-.59,0,3.11,3.11,0,0,1-.6-.09,3.71,3.71,0,0,1-.55-.22,2.77,2.77,0,0,1-.48-.34,2.47,2.47,0,0,1-.68-.9,3.07,3.07,0,0,1-.2-.5,3.33,3.33,0,0,1-.11-.53l.11,0A4,4,0,0,0,156,11a2.71,2.71,0,0,0,.28.41A2.32,2.32,0,0,0,157,12a1.65,1.65,0,0,0,.41.18,3.29,3.29,0,0,0,.43.09h.44a3.11,3.11,0,0,0,.44-.08,2.05,2.05,0,0,0,.41-.16,3.64,3.64,0,0,0,.39-.23l.37-.25.37-.25c.26-.17.51-.36.77-.56l.2-.16.2-.16.21-.16.22-.17.1.05A2.64,2.64,0,0,1,162,10.42Z" fill="#fff"/><path d="M151.72,35.77c12,.36,13.54-9.11,14.05-14.22-3,4.35-11.22,4.94-19.89,6.28a1.54,1.54,0,0,0-1.19.93h0a5.82,5.82,0,0,0-.32,1.08,6.32,6.32,0,0,0-.13,1.14,5.42,5.42,0,0,0,0,.57.66.66,0,0,0,0,.14v.15a2.64,2.64,0,0,0,0,.28,9,9,0,0,0,.57,2.22,9.93,9.93,0,0,0,.5,1l.15.25.15.24.16.24.17.24-.14.1a4.94,4.94,0,0,1-1-.77,7.13,7.13,0,0,1-.84-1,7.94,7.94,0,0,1-.64-1.14c0-.11-.09-.21-.14-.31s-.07-.21-.11-.31-.07-.22-.11-.32-.06-.22-.08-.33a7.09,7.09,0,0,1-.14-2.76,3.33,3.33,0,0,1,.1-.55.46.46,0,0,0-.53-.56c-.78.15-1.56.31-2.33.48a.37.37,0,0,0-.28.25h0l0,.13,0,.13,0,.13,0,.13a6.15,6.15,0,0,0-.08,1.06,2.17,2.17,0,0,1,0,.26l0,.27c0,.18,0,.35.07.53a8.45,8.45,0,0,0,.66,2.05,9.6,9.6,0,0,0,.5.95c.09.16.19.31.29.46l.15.23.16.22-.14.1a5.51,5.51,0,0,1-1-.69,7.7,7.7,0,0,1-.83-.88,6.41,6.41,0,0,1-.67-1l-.08-.14a.61.61,0,0,0-.07-.14l-.06-.14a1,1,0,0,1-.07-.15l-.06-.15-.06-.14a.88.88,0,0,0,0-.15l-.05-.16a6.46,6.46,0,0,1-.28-1.28V30.6c0-.05,0-.11,0-.16s0-.23,0-.35v-.34l0-.35h0c-1,.26-2,.55-3,.88a.13.13,0,0,1,0,.06,6.23,6.23,0,0,0-.08,1.06,2.44,2.44,0,0,1,0,.27l0,.26c0,.18,0,.36.07.53a8.32,8.32,0,0,0,.66,2,8.74,8.74,0,0,0,.5,1c.09.15.19.3.29.45l.15.23.16.22-.14.1a5.51,5.51,0,0,1-1-.69,7.61,7.61,0,0,1-.83-.87,7,7,0,0,1-.67-1l-.08-.14s0-.09-.07-.14l-.06-.14a1,1,0,0,1-.07-.15l-.06-.14-.06-.15a.88.88,0,0,0,0-.15l-.05-.15a6.72,6.72,0,0,1-.28-1.29v-.16c0-.06,0-.11,0-.17a1.48,1.48,0,0,0,0-.21c-.69.27-1.36.57-2,.89L131,32l-.09.14h0a2.26,2.26,0,0,1,0,.26l0,.26a4.51,4.51,0,0,0,.07.53,7.8,7.8,0,0,0,.66,2,8.74,8.74,0,0,0,.5,1l.29.46.15.22.16.22-.14.11a5.56,5.56,0,0,1-1-.7,6.86,6.86,0,0,1-.83-.87,6.5,6.5,0,0,1-.67-1l-.08-.14s0-.09-.07-.14l-.06-.14,0,0,0-.09,0-.13v0l-.06-.15c0-.05,0-.1-.05-.15l-.05-.15a6.29,6.29,0,0,1-.17-.62c-.22.13-.43.27-.64.41l-.74.5-.6.45v0a7.32,7.32,0,0,0,.26,1c.08.26.18.5.28.75,0,.08.07.17.11.25.15.33.32.65.5,1l.29.46c.05.07.1.15.16.22l.15.22-.13.11a6.14,6.14,0,0,1-1-.7,6.83,6.83,0,0,1-.83-.87,8.56,8.56,0,0,1-.63-.94l0-.09-.07-.14a.61.61,0,0,1-.07-.14l-.07-.14a1,1,0,0,0,0-.1l-.54.5c-.28.28-.56.57-.83.87a10.53,10.53,0,0,0,.46,1.22,9.7,9.7,0,0,0,.51,1c.09.16.19.31.29.46l.15.23.15.22-.13.1a5.51,5.51,0,0,1-1-.69,6.91,6.91,0,0,1-.83-.88,6.76,6.76,0,0,1-.44-.61c-.31.41-.61.85-.9,1.3.08.22.17.44.27.65s.32.64.5,1l.29.45.16.23.15.22-.13.1a5.51,5.51,0,0,1-1-.69,6.83,6.83,0,0,1-.83-.87l0,0a17.78,17.78,0,0,0-.85,1.81h0l.32.58.29.46.15.22.16.22-.14.11a5.56,5.56,0,0,1-1-.7l-.11-.1c-.19.54-.36,1.1-.52,1.69l.09.14c.09.16.19.31.29.46l.15.23.16.22-.14.1a4.91,4.91,0,0,1-.71-.48,29,29,0,0,0-.69,6.56c13.59-18.06,33.37-6.57,41.67-14.18C159.41,34.43,157.28,37,151.72,35.77Zm2.5-7.38a1.41,1.41,0,0,1,1.54,1.55,1.42,1.42,0,0,1-1.25,1.25A1.41,1.41,0,0,1,153,29.65,1.42,1.42,0,0,1,154.22,28.39Z" fill="#fff"/><path d="M134.51,61.45h-1.62c-.35,0-.7,0-1-.08s-.7-.07-1.05-.12l-.26,0-.26,0-.26-.06-.13,0-.12,0a.5.5,0,0,1-.13,0l-.13,0-.26-.07-.12,0L129,60.8l-.22-.07s0,0,0,0h0a0,0,0,0,0,0,0l.21.11.12.06.12.06.25.1.12.06.13.05c.34.13.68.23,1,.33l.52.14.53.11.54.09.53.08,1.08.15.27,0h0a.09.09,0,0,1,.07.12,6.77,6.77,0,0,1-1.46,2.24h0l-.5-.07-.79-.11a11.92,11.92,0,0,1-1.56-.3,11.25,11.25,0,0,1-1.51-.53,6.67,6.67,0,0,1-.71-.35,6.82,6.82,0,0,1-.68-.41,6.27,6.27,0,0,1-1.19-1,6,6,0,0,1-.49-.64,6.48,6.48,0,0,1-.39-.67,0,0,0,0,0,0,0h0a0,0,0,0,0,0,0,6.81,6.81,0,0,0,.31.74,7.45,7.45,0,0,0,.43.71l.13.17.13.17c0,.06.09.11.13.16l.14.16a5.67,5.67,0,0,0,.62.58,7.84,7.84,0,0,0,1.4.95c.25.13.5.25.76.36a7.61,7.61,0,0,0,.79.31l.8.26c.27.09.54.16.81.23h0a.24.24,0,0,1,.07.43,10.13,10.13,0,0,1-2.58,1.19.81.81,0,0,1-.51,0h0c-.33-.12-.65-.24-1-.38l-.24-.11-.12,0-.12-.06-.23-.11a1.05,1.05,0,0,1-.11-.07l-.12-.06a6.17,6.17,0,0,1-.86-.58,7.06,7.06,0,0,1-1.43-1.51,7.33,7.33,0,0,1-.53-.9l-.12-.24a2.44,2.44,0,0,0-.1-.24l0-.12,0-.13,0-.12,0-.07,0-.06-.09-.25,0-.13,0-.13,0-.13a.61.61,0,0,1,0-.13l-.06-.26a9.51,9.51,0,0,1-.16-1.07V59.8s0-.09,0-.14v-.4a.66.66,0,0,0,0-.14v-.27a2.43,2.43,0,0,1,0-.27v-.27c0-.1,0-.19,0-.28v-.24a0,0,0,0,0,0,0h0s0,0,0,0,0,.34-.07.51l0,.28a2.48,2.48,0,0,0,0,.27l0,.28c0,.05,0,.09,0,.14V60a10.34,10.34,0,0,0,.07,1.11l0,.28s0,.09,0,.14l0,.14,0,.14,0,.13.06.28,0,.07,0,.06,0,.14,0,.14,0,.13.09.27.1.26a9.85,9.85,0,0,0,.51,1A8,8,0,0,0,125,66a9.45,9.45,0,0,0,.94.73.38.38,0,0,1-.17.69,23.77,23.77,0,0,1-4,0A1.1,1.1,0,0,1,121,67c-4-6.15,2.2-17,5.81-20.08,0,0,.06,0,.06,0-.54,3.21-4.2,12.25,7.56,12.27l0,0A3.89,3.89,0,0,1,134.51,61.45Z" fill="#fff"/></svg>