<svg id="profile" xmlns="http://www.w3.org/2000/svg" viewBox="0 0 15.74 18"><path id="Path_6390" data-name="Path 6390" d="M10.07,14.7H5.67a.64.64,0,0,1,0-1.28h4.4a.64.64,0,1,1,0,1.28Z" fill="#ccc"/><path id="Path_6391" data-name="Path 6391" d="M8.09,7.74H7.7A3.69,3.69,0,0,1,4,4.06H4V3.68A3.69,3.69,0,0,1,7.7,0h.38a3.68,3.68,0,0,1,3.68,3.68h0v.38A3.67,3.67,0,0,1,8.1,7.74ZM7.7,1.28a2.39,2.39,0,0,0-2.4,2.4h0v.38a2.39,2.39,0,0,0,2.38,2.4h.4a2.39,2.39,0,0,0,2.4-2.38v-.4A2.39,2.39,0,0,0,8.1,1.28H7.7Z" fill="#ccc"/><path id="Path_6392" data-name="Path 6392" d="M13.05,18H2.83A2.83,2.83,0,0,1,0,15.17H0V13.65A.64.64,0,0,1,.63,13h0a.63.63,0,0,1,.64.62v1.54a1.57,1.57,0,0,0,1.55,1.55H13.05a1.42,1.42,0,0,0,1.4-1.41V14.06a2.81,2.81,0,0,0,0-.71,1.78,1.78,0,0,0-.35-.65,5.07,5.07,0,0,0-1.57-1.18,9.46,9.46,0,0,0-4.82-1H7.14A9,9,0,0,0,2.2,12.09.64.64,0,0,1,1.3,12h0a.66.66,0,0,1,.11-.9h0A10.14,10.14,0,0,1,7,9.31h.62a10.67,10.67,0,0,1,5.47,1.11A6.32,6.32,0,0,1,15,11.92a2.79,2.79,0,0,1,.6,1.14,3.7,3.7,0,0,1,.09,1v1.23A2.69,2.69,0,0,1,13.05,18Z" fill="#ccc"/></svg>