<svg id="Layer_1" data-name="Layer 1" xmlns="http://www.w3.org/2000/svg" viewBox="0 0 33.63 33.63"><g id="layer1"><g id="g4852"><path id="path6467-8" d="M14.52,1.86a.74.74,0,0,0-.4.19c-.09.08-.14.14-.23.23s-.35.42-.52.63l-.5.56c-.06.06-.09.12-.13.16l-.23,0-.76-.13a7.4,7.4,0,0,0-.75-.1,2.33,2.33,0,0,0-.36,0,.75.75,0,0,0-.73.43,2.85,2.85,0,0,0-.16.3c-.1.22-.2.49-.3.75s-.18.54-.26.73a1.26,1.26,0,0,1-.07.16h0a1.11,1.11,0,0,1-.2.07l-.72.13c-.27,0-.55.1-.79.16l-.33.1a.85.85,0,0,0-.36.26.72.72,0,0,0-.16.4c0,.11,0,.24,0,.36s0,.51,0,.79,0,.55,0,.76a1.17,1.17,0,0,1,0,.23l-.17.09-.65.4c-.24.14-.46.29-.66.43a3,3,0,0,0-.3.19.83.83,0,0,0-.26.37.63.63,0,0,0,0,.42,2.07,2.07,0,0,0,.1.33c.06.24.17.53.26.79s.17.49.23.69,0,.18.07.23-.08.09-.14.17-.28.37-.46.59-.35.42-.49.62l-.2.3A.77.77,0,0,0,3.6,15a.66.66,0,0,0,.13.4,3,3,0,0,0,.2.29c.14.2.32.42.49.63s.34.43.46.59a1.53,1.53,0,0,1,.14.17s0,0,0,0l-.07.2c-.06.19-.14.46-.23.72s-.2.52-.26.75a2.44,2.44,0,0,0-.1.33.66.66,0,0,0,0,.43.79.79,0,0,0,.26.36,3.13,3.13,0,0,0,.3.2c.2.14.42.29.66.43l.65.39.17.1a1.07,1.07,0,0,1,0,.23c0,.21,0,.48,0,.76s0,.57,0,.82,0,.21,0,.33a.67.67,0,0,0,.16.39.76.76,0,0,0,.36.26,1.8,1.8,0,0,0,.33.1l.79.17c.27.05.53.08.72.13l.2.06h0a1.5,1.5,0,0,1,.07.2c.08.19.17.43.26.69,0,.05.05.09.07.13L7.35,28.94a.55.55,0,0,0,.59.76l2.37-.63.62,2.37a.58.58,0,0,0,1,.13l2-3.78,0,0a.74.74,0,0,0,.53.3.75.75,0,0,0,.42,0l.33-.13c.22-.11.45-.26.69-.4l.66-.36.2-.1.19.1.66.36c.24.14.47.29.69.4l.33.13a.69.69,0,0,0,.43,0,.67.67,0,0,0,.36-.16l2.1,3.61a.58.58,0,0,0,1-.13l.62-2.37,2.37.63a.55.55,0,0,0,.59-.76l-2.1-3.42a3.82,3.82,0,0,0,.13-.36c.09-.26.19-.5.26-.69a1.65,1.65,0,0,0,.07-.2h0l.2-.06c.2-.05.45-.08.72-.13l.79-.17a1.8,1.8,0,0,0,.33-.1.68.68,0,0,0,.36-.26.7.7,0,0,0,.17-.39c0-.12,0-.21,0-.33s0-.55,0-.82,0-.55,0-.76,0-.18,0-.23l.17-.1.66-.39c.23-.14.45-.29.65-.43a2.23,2.23,0,0,0,.3-.2.67.67,0,0,0,.26-.36.62.62,0,0,0,0-.43,2.1,2.1,0,0,0-.06-.33c-.07-.23-.17-.49-.27-.75s-.16-.53-.23-.72-.05-.18-.06-.23a1.29,1.29,0,0,1,.13-.17c.12-.16.28-.38.46-.59s.35-.43.49-.63a2.51,2.51,0,0,0,.2-.29A.6.6,0,0,0,30,15a.69.69,0,0,0-.13-.42,2.61,2.61,0,0,0-.2-.3c-.14-.2-.31-.41-.49-.62s-.34-.43-.46-.59-.1-.12-.13-.17,0-.06,0,0,0-.11.06-.2.14-.43.23-.69.2-.55.27-.79a1.91,1.91,0,0,0,.06-.33.59.59,0,0,0,0-.42.7.7,0,0,0-.26-.37c-.09-.07-.19-.12-.3-.19s-.42-.29-.65-.43l-.66-.4L27.2,9c0-.06,0-.13,0-.23s0-.48,0-.76,0-.54,0-.79,0-.25,0-.36a.82.82,0,0,0-.53-.66l-.33-.1C26,6,25.73,6,25.46,5.9l-.72-.13a1.11,1.11,0,0,1-.2-.07h0l-.07-.16-.26-.73c-.09-.26-.2-.53-.3-.75a1.73,1.73,0,0,0-.16-.3.73.73,0,0,0-.3-.33.78.78,0,0,0-.42-.1,2.2,2.2,0,0,0-.36,0,7.22,7.22,0,0,0-.76.1l-.76.13-.19,0-.17-.16-.49-.56c-.18-.21-.36-.45-.53-.63a2.5,2.5,0,0,0-.23-.23.74.74,0,0,0-.39-.19.78.78,0,0,0-.43,0c-.11,0-.22.11-.33.16l-.69.36-.66.4-.19.1-.2-.1L16,2.41l-.69-.36c-.11,0-.22-.12-.33-.16A.6.6,0,0,0,14.52,1.86Zm.19,1.08.1,0,.63.36c.23.14.47.29.69.4a2.26,2.26,0,0,0,.33.13.7.7,0,0,0,.36.1.74.74,0,0,0,.36-.1,2.81,2.81,0,0,0,.33-.13c.21-.11.45-.26.69-.4L18.82,3l.1,0L19,3l.49.55c.17.21.36.42.53.6a3,3,0,0,0,.23.26.88.88,0,0,0,.32.2.82.82,0,0,0,.37.06l.32,0L22,4.52c.27,0,.54-.11.73-.13h.1s0,.05.06.1.17.43.26.69.18.53.27.75a2.71,2.71,0,0,0,.13.3.9.9,0,0,0,.23.33.83.83,0,0,0,.36.16l.33.07.76.16.72.13.1,0s0,.07,0,.13,0,.45,0,.72,0,.55,0,.79,0,.25,0,.36a.89.89,0,0,0,.1.36.7.7,0,0,0,.26.26l.3.2c.2.13.42.29.66.43s.46.25.62.36l.1.07,0,.13c-.06.19-.14.43-.23.69s-.19.52-.27.75,0,.23-.06.33a.69.69,0,0,0,0,.37.88.88,0,0,0,.13.36l.19.26c.15.19.36.41.53.62s.31.44.43.6l.06.09-.06.1c-.12.16-.26.35-.43.56s-.38.43-.53.63l-.19.26a.78.78,0,0,0-.13.36.81.81,0,0,0,0,.4c0,.1,0,.21.06.32s.18.47.27.73.17.53.23.72,0,.06,0,.1l-.1.07-.62.39c-.24.14-.46.26-.66.39s-.21.13-.3.2a.9.9,0,0,0-.26.26,1.05,1.05,0,0,0-.1.4c0,.11,0,.21,0,.33s0,.51,0,.79,0,.52,0,.72,0,.09,0,.13l-.1,0c-.19.05-.46.09-.72.14s-.53.11-.76.16a2.72,2.72,0,0,0-.33.07,1,1,0,0,0-.36.19.77.77,0,0,0-.23.3,2,2,0,0,0-.13.29c-.09.23-.17.5-.27.76s-.18.51-.26.69-.05.06-.06.1h-.1c-.19,0-.46-.09-.73-.13l-.79-.13-.32,0a.86.86,0,0,0-.37.07.76.76,0,0,0-.32.2,3,3,0,0,0-.23.26c-.17.18-.36.38-.53.59s-.36.42-.49.56a.46.46,0,0,0-.07.07l-.1,0c-.17-.08-.39-.22-.62-.36l-.69-.39a2.81,2.81,0,0,0-.33-.13.64.64,0,0,0-.36-.1.62.62,0,0,0-.36.1,2.26,2.26,0,0,0-.33.13c-.22.11-.46.26-.69.39s-.46.28-.63.36-.09,0-.13,0l-.3-.33c-.2-.24-.41-.52-.62-.76s-.2-.23-.3-.33a.84.84,0,0,0-.39-.26.8.8,0,0,0-.36-.07,2,2,0,0,0-.33,0l-.79.13c-.27,0-.53.11-.72.13h-.1s0-.05-.07-.1-.17-.43-.26-.69-.17-.53-.26-.76-.08-.2-.13-.29a.94.94,0,0,0-.24-.3.84.84,0,0,0-.36-.19,2.72,2.72,0,0,0-.33-.07c-.23-.05-.49-.12-.75-.16s-.54-.09-.72-.14l-.1,0a1,1,0,0,1,0-.13c0-.2,0-.45,0-.72s0-.55,0-.79a1.76,1.76,0,0,0,0-.33.78.78,0,0,0-.1-.4.79.79,0,0,0-.26-.26c-.09-.07-.19-.13-.3-.2s-.45-.25-.69-.39-.43-.29-.59-.39l-.1-.07a.69.69,0,0,1,0-.1,6.46,6.46,0,0,1,.23-.72c.09-.26.19-.49.26-.73A2,2,0,0,0,6,17.31a.79.79,0,0,0,0-.4,1.1,1.1,0,0,0-.13-.36c-.06-.09-.13-.17-.2-.26s-.35-.42-.53-.63-.31-.4-.42-.56a.61.61,0,0,1-.07-.1.44.44,0,0,1,.07-.09c.11-.16.25-.39.42-.6s.38-.43.53-.62.14-.17.2-.26a1.2,1.2,0,0,0,.13-.36.68.68,0,0,0,0-.37A2.33,2.33,0,0,0,6,12.37c-.07-.23-.17-.49-.26-.75a6.92,6.92,0,0,1-.23-.69.93.93,0,0,1,0-.13l.1-.07c.16-.11.36-.22.59-.36l.69-.43a2.23,2.23,0,0,0,.3-.2.63.63,0,0,0,.26-.26.65.65,0,0,0,.1-.36,2.1,2.1,0,0,0,0-.36c0-.24,0-.52,0-.79s0-.53,0-.72a1,1,0,0,1,0-.13.23.23,0,0,1,.1,0L8.37,7l.75-.16.33-.07a.74.74,0,0,0,.36-.16,1.11,1.11,0,0,0,.24-.33c0-.1.08-.19.13-.3s.17-.5.26-.75.18-.52.26-.69a.43.43,0,0,1,.07-.1h.1c.19,0,.45.08.72.13l.79.13.33,0a.92.92,0,0,0,.36-.06.94.94,0,0,0,.33-.2,3,3,0,0,0,.23-.26c.16-.18.35-.39.52-.6s.36-.41.5-.55Zm2,2.6A9.47,9.47,0,1,0,26.22,15,9.47,9.47,0,0,0,16.75,5.54Zm0,1A8.42,8.42,0,1,1,8.34,15,8.41,8.41,0,0,1,16.75,6.59ZM14.12,10.8a1.58,1.58,0,1,0,1.12.46A1.57,1.57,0,0,0,14.12,10.8Zm6.15,0a.53.53,0,0,0-.2.13l-7.36,7.36a.53.53,0,1,0,.75.76h0l7.33-7.37a.52.52,0,0,0-.52-.88Zm-6.15,1a.45.45,0,0,1,.36.13.54.54,0,0,1,0,.76.49.49,0,0,1-.72,0,.54.54,0,0,1,0-.76A.46.46,0,0,1,14.12,11.85Zm5.26,4.21a1.58,1.58,0,1,0,1.12.46A1.57,1.57,0,0,0,19.38,16.06Zm0,1.05a.64.64,0,0,1,.4.16.54.54,0,1,1-.76,0A.52.52,0,0,1,19.38,17.11Zm-6.67,9.24s0,0,0,0l.23.26c.07.08.15.2.23.3l-1.58,3-.42-1.64a.57.57,0,0,0-.66-.37l-1.65.46,1.16-2a.36.36,0,0,0,.16.13.66.66,0,0,0,.43.1,2.16,2.16,0,0,0,.36,0c.24,0,.48-.08.75-.13l.76-.13Zm8.18,0,.23,0,.76.13a7.56,7.56,0,0,0,.76.13,2.16,2.16,0,0,0,.36,0,.63.63,0,0,0,.42-.1l1.19,1.84L23,27.92a.55.55,0,0,0-.65.37L21.88,30,20.2,27.17s.05,0,.07-.07c.18-.21.35-.44.49-.59A1.43,1.43,0,0,1,20.89,26.35Z" fill="#cbcbca"/></g></g></svg>