<svg id="Layer_1" data-name="Layer 1" xmlns="http://www.w3.org/2000/svg" viewBox="0 0 33.63 33.63"><path d="M16.81,3A13.83,13.83,0,0,0,5.33,24.54L3,30.65,9.26,28.4A13.84,13.84,0,1,0,16.81,3Z" fill="none" stroke="#303c42" stroke-linecap="round" stroke-linejoin="round" stroke-width="1.1"/><path d="M13.8,19.82c1.56,1.57,5,3.61,6.62,3.61a3,3,0,0,0,3-2.4V19.82s-1.48-.72-2.4-1.2-2.41,1.2-2.41,1.2a7.86,7.86,0,0,1-3-1.8,7.84,7.84,0,0,1-1.8-3s1.68-1.48,1.2-2.4-1.2-2.41-1.2-2.41H12.6a3,3,0,0,0-2.41,3C10.19,14.81,12.24,18.26,13.8,19.82Z" fill="none" stroke="#303c42" stroke-linecap="round" stroke-linejoin="round" stroke-width="1.1"/></svg>