<svg id="brands" xmlns="http://www.w3.org/2000/svg" viewBox="0 0 21.2 18"><path id="Path_6385" data-name="Path 6385" d="M2.6,18a1.19,1.19,0,0,1-1.2-1h0L0,6.6A1.54,1.54,0,0,1,.7,5a1.67,1.67,0,0,1,1.8-.1h0L5.1,6.8,8.9.9A1.77,1.77,0,0,1,10.6,0h0a1.94,1.94,0,0,1,1.7,1L16,6.9,18.7,5h0a1.53,1.53,0,0,1,2.2.6,1.72,1.72,0,0,1,.2,1.2L19.8,17h0a1.19,1.19,0,0,1-1.2,1H2.6ZM1.6,5.9a.35.35,0,0,1-.2.1c-.1.1-.1.2-.1.4h0L2.7,16.7H18.5L19.9,6.5h0c0-.2-.1-.4-.3-.4h-.2L16.7,8h0a1.14,1.14,0,0,1-1.6-.4l-3.7-6a.84.84,0,0,0-.7-.4h0a.75.75,0,0,0-.7.4l-3.8,6A1.39,1.39,0,0,1,4.5,8h0L1.8,6a.35.35,0,0,0-.2-.1Z" fill="#ccc"/><path id="Path_6386" data-name="Path 6386" d="M13.5,14.6H7.8a.6.6,0,0,1,0-1.2h5.7a.58.58,0,0,1,.6.6A.65.65,0,0,1,13.5,14.6Z" fill="#ccc"/></svg>