<svg id="cart" xmlns="http://www.w3.org/2000/svg" viewBox="0 0 14.5 18"><path id="Path_6387" data-name="Path 6387" d="M11.1,18H3.4A3.37,3.37,0,0,1,0,14.6H0v-.1L.9,6.1A2.07,2.07,0,0,1,3,4.3h8.5a2.08,2.08,0,0,1,2.1,1.9l.8,8.4h0A3.23,3.23,0,0,1,11.1,18ZM1.3,14.7a2.18,2.18,0,0,0,2.1,2.1h7.8a2.11,2.11,0,0,0,2.1-2.1l-.8-8.3a.88.88,0,0,0-.9-.8H3a1,1,0,0,0-.9.8Z" fill="#ccc"/><path id="Path_6388" data-name="Path 6388" d="M10,5.1a.58.58,0,0,1-.6-.6h0V3.4a2.18,2.18,0,0,0-2.2-2,2.24,2.24,0,0,0-2,2V4.5a.58.58,0,0,1-.6.6.75.75,0,0,1-.7-.7v-1A3.35,3.35,0,0,1,7.4.2a3.44,3.44,0,0,1,3.2,3.2V4.5A.58.58,0,0,1,10,5.1Z" fill="#ccc"/><path id="Path_6389" data-name="Path 6389" d="M7.4,12.2H7.2A3.37,3.37,0,0,1,3.8,8.8h0V8.4a.58.58,0,0,1,.6-.6.66.66,0,0,1,.7.6h0v.5A2.11,2.11,0,0,0,7.2,11h.2A2.05,2.05,0,0,0,9.5,8.9h0V8.4a.6.6,0,1,1,1.2,0v.5A3.2,3.2,0,0,1,7.4,12.2Z" fill="#ccc"/></svg>