<svg id="Layer_1" data-name="Layer 1" xmlns="http://www.w3.org/2000/svg" viewBox="0 0 33.63 33.63"><g id="layer1"><g id="text11970"><g id="text12257"><g id="g3549"><g id="text12297"><g id="g4774"><g id="g14823"><g id="g7277"><path id="rect9111" d="M8.78,1.82A3.21,3.21,0,0,0,5.57,5V22.17H1.82a.54.54,0,0,0-.54.54v1.61A4.29,4.29,0,0,0,5.57,28.6H16.28v2.68a.54.54,0,0,0,.54.54h15a.54.54,0,0,0,.53-.54V12a.54.54,0,0,0-.53-.54h-5.9V5.07a3.24,3.24,0,0,0-3.21-3.25H8.78Zm0,1.07H20.33a3.24,3.24,0,0,0-.83,2.18v6.39H16.82a.54.54,0,0,0-.54.54V22.14l-9.64,0V5A2.13,2.13,0,0,1,8.78,2.89Zm13.73,0a1.33,1.33,0,0,1,.2,0,2.15,2.15,0,0,1,2.14,2.18v6.39H20.57V5.07A2.15,2.15,0,0,1,22.51,2.89ZM7.71,5V6.1H8.78V5ZM9.85,5V6.1h8.57V5ZM7.71,7.18V8.25H8.78V7.18Zm2.14,0V8.25h8.57V7.18ZM7.71,9.32v1.07H8.78V9.32Zm2.14,0v1.07h8.57V9.32ZM7.71,11.46v1.07H8.78V11.46Zm2.14,0v1.07h5.36V11.46Zm7.5,1.07H31.28V30.75H17.35V28.17a.17.17,0,0,0,0-.1V22.68a.17.17,0,0,0,0-.1Zm.91.54a.53.53,0,0,0-.37.53v3.22a.53.53,0,0,0,.53.53H30.21a.53.53,0,0,0,.53-.53V13.6a.53.53,0,0,0-.53-.53H18.26ZM7.71,13.6v1.08H8.78V13.6Zm2.14,0v1.08h5.36V13.6Zm9.11.54H29.67v2.14H19Zm-8,1.61v1.07h4.29V15.75Zm0,2.14V19h4.29V17.89Zm7.94,0a.54.54,0,0,0-.44.53v2.15a.54.54,0,0,0,.54.53H21.1a.54.54,0,0,0,.54-.53V18.42a.54.54,0,0,0-.54-.53H18.86Zm4.28,0a.53.53,0,0,0-.43.53v2.15a.53.53,0,0,0,.53.53h2.15a.53.53,0,0,0,.53-.53V18.42a.53.53,0,0,0-.53-.53H23.14Zm4.29,0a.54.54,0,0,0-.44.53v2.15a.54.54,0,0,0,.54.53h2.14a.54.54,0,0,0,.54-.53V18.42a.54.54,0,0,0-.54-.53H27.43ZM19.5,19h1.07V20H19.5Zm4.28,0h1.07V20H23.78Zm4.29,0h1.07V20H28.07Zm-9.21,3.21a.55.55,0,0,0-.44.54v2.14a.54.54,0,0,0,.54.54H21.1a.54.54,0,0,0,.54-.54V22.71a.54.54,0,0,0-.54-.54H18.86Zm4.28,0a.54.54,0,0,0-.43.54v2.14a.54.54,0,0,0,.53.54h2.15a.54.54,0,0,0,.53-.54V22.71a.54.54,0,0,0-.53-.54H23.14Zm4.29,0a.55.55,0,0,0-.44.54v6.43a.54.54,0,0,0,.54.53h2.14a.54.54,0,0,0,.54-.53V22.71a.54.54,0,0,0-.54-.54H27.43Zm-11.15,1v4.32H5.57a3.2,3.2,0,0,1-3.22-3.21V23.25Zm3.22,0h1.07v1.07H19.5Zm4.28,0h1.07v1.07H23.78Zm4.29,0h1.07V28.6H28.07Zm-9.21,3.21a.55.55,0,0,0-.44.54v2.14a.54.54,0,0,0,.54.53H21.1a.54.54,0,0,0,.54-.53V27a.54.54,0,0,0-.54-.54H18.86Zm4.28,0a.54.54,0,0,0-.43.54v2.14a.53.53,0,0,0,.53.53h2.15a.53.53,0,0,0,.53-.53V27a.54.54,0,0,0-.53-.54H23.14ZM19.5,27.53h1.07V28.6H19.5Zm4.28,0h1.07V28.6H23.78Z" fill="#cbcbca"/></g></g></g></g></g></g></g></g></svg>